<?xml version="1.0" encoding="utf-8"?>
<svg version="1.1" id="Layer_1" xmlns="http://www.w3.org/2000/svg" xmlns:xlink="http://www.w3.org/1999/xlink" x="0px" y="0px"
	 viewBox="0 0 2331 2500" xml:space="preserve">
<path style="fill:#ffffff" d="M2326.2,820.4c0-540.7-354.3-699.2-354.3-699.2C1793.3,39.2,1486.6,4.7,1168,2.1h-7.9C841.5,4.7,535,39.2,356.3,121.2
	c0,0-354.3,158.5-354.3,699.2c0,123.8-2.4,271.9,1.5,428.9c12.8,528.8,96.9,1050,585.8,1179.4c225.4,59.6,419,72.1,574.8,63.6
	c282.7-15.7,441.3-100.9,441.3-100.9l-9.3-205.1c0,0-202,63.7-428.9,55.9c-224.7-7.7-462-24.2-498.4-300.2
	c-3.4-24.2-5.1-50.1-5.1-77.4c0,0,220.7,53.9,500.3,66.7c171,7.9,331.3-10,494.2-29.4c312.3-37.3,584.2-229.7,618.4-405.6
	C2330.7,1219.4,2326.2,820.4,2326.2,820.4z M1908.4,1517.1H1649V881.7c0-134-56.3-201.9-169.1-201.9
	c-124.7,0-187.1,80.6-187.1,240.1v347.9h-257.9V919.8c0-159.5-62.5-240.1-187.1-240.1c-112.7,0-169.1,68-169.1,201.9v635.5H419.3
	V862.4c0-133.8,34.1-240.2,102.5-318.8c70.6-78.7,163-119,277.7-119c132.7,0,233.2,51,299.7,153.1l64.6,108.3l64.6-108.3
	c66.4-102,167-153.1,299.7-153.1c114.7,0,207.2,40.3,277.7,119c68.4,78.7,102.5,185,102.5,318.8l0,0V1517.1z"/>
</svg>
