<?xml version="1.0" encoding="UTF-8" standalone="no"?>
<svg
   xmlns="http://www.w3.org/2000/svg"
   version="1.1"
   id="svg2"
   xml:space="preserve"
   width="3417.3201"
   height="474.92001"
   viewBox="0 0 3417.3201 474.92001"
   style="fill:#ffffff;fill-opacity:1;fill-rule:nonzero;stroke:none">
   <g
     transform="matrix(1.3333333,0,0,-1.3333333,0,474.92)"><g
       transform="scale(0.1)"><path
         d="m 1863.2,2250.3 c 0,314.6 -212.99,585.63 -542.06,585.63 H 783.977 V 1664.84 h 537.163 c 329.07,0 542.06,270.86 542.06,585.46 z M 0,3474.71 h 1417.88 c 750.16,0 1234.17,-566.28 1234.17,-1224.41 0,-658.13 -484.01,-1224.23 -1234.17,-1224.23 H 783.977 V 87.1406 L 0,87.1406 V 3474.71"
         /><path
         d="M 4921.7,2506.86 4505.49,1113.04 h 822.66 z M 5652.51,87.1406 5521.97,498.48 H 4316.9 L 4186.18,87.1406 h -837.3 L 4558.82,3474.71 h 721.05 L 6504.29,87.1406 h -851.78"
         /><path
         d="M 7820.55,2797.23 H 7056.1 v 677.48 H 9374.03 V 2797.23 H 8604.52 V 87.1406 H 7820.55 V 2797.23"
         /><path
         d="m 12456.8,2250.3 c 0,314.6 -213,585.63 -542.1,585.63 h -537.2 V 1664.84 h 537.2 c 329.1,0 542.1,270.86 542.1,585.46 z m -1863.2,1224.41 h 1422.9 c 750,0 1234,-566.28 1234,-1224.41 0,-474.25 -251.7,-895.17 -672.8,-1093.69 L 13255.4,87.1406 h -909.8 l -600.3,938.9294 h -367.8 V 87.1406 h -783.9 V 3474.71"
         /><path
         d="m 15365.4,2845.52 v -769.34 h 1282.4 V 1461.45 H 15365.4 V 716.352 h 1282.4 V 87.1406 H 14581.4 V 3474.71 h 2066.4 v -629.19 h -1282.4"
         /><path
         d="m 20708.2,1780.93 c 0,556.52 -377.6,1074.34 -992.1,1074.34 -619.5,0 -992.1,-517.82 -992.1,-1074.34 0,-556.52 372.6,-1074.352 992.1,-1074.352 614.5,0 992.1,517.832 992.1,1074.352 z m -2787.7,0 c 0,929.16 667.9,1780.93 1795.6,1780.93 1122.6,0 1790.5,-851.77 1790.5,-1780.93 C 21506.6,851.77 20838.7,0 19716.1,0 18588.4,0 17920.5,851.77 17920.5,1780.93"
         /><path
         d="m 24850.8,1267.98 v 2206.73 h 779.1 V 87.1406 h -817.8 L 23592.4,2264.94 V 87.1406 h -784 V 3474.71 h 817.8 l 1224.6,-2206.73"
         /></g></g></svg>
