<?xml version="1.0" encoding="utf-8"?>
<!-- Generator: Adobe Illustrator 27.4.1, SVG Export Plug-In . SVG Version: 6.00 Build 0)  -->
<svg version="1.1" baseProfile="tiny" id="Layer_1" xmlns="http://www.w3.org/2000/svg" xmlns:xlink="http://www.w3.org/1999/xlink"
	 x="0px" y="0px" viewBox="0 0 801 801" overflow="visible" xml:space="preserve">
<rect fill="#00809F" width="800" height="800"/>
<g transform="translate(0.000000,448.000000) scale(0.100000,-0.100000)">
	<path fill="#FADE85" d="M3020.8,2710c-85-30-185-65-223-80c-94-36-104-32-23,11c70,38,87,56,68,75c-18,18-81-3-242-81
		c-41-20-78-37-82-39c-3-2-4,6-1,17c3,12,2,28-1,38c-6,14-10,11-26-15c-11-18-25-32-31-32c-12,0-92-61-119-91c-9-10-45-34-80-55
		c-36-20-90-56-120-79c-72-54-78-57-84-46c-3,5,8,26,24,46c35,44,45,74,36,110c-7,28-26,25-26-5c0-10-15-29-32-41
		c-18-13-36-27-39-32c-23-33-123-148-176-203c-26-26-33-42-33-72c0-54,77-170,160-242c95-81,134-128,148-176c15-51,7-72-54-145
		c-20-24-41-56-46-71c-12-34-16-34-65-6c-68,39-101,72-156,156c-87,132-138,248-158,354c-14,78-34,124-78,178c-60,74-92,98-196,149
		c-155,76-263,100-356,80c-74-16-93-27-171-101c-85-79-128-114-198-159c-200-129-220-145-205-170c8-12,230,10,312,31
		c31,8,36,5,88-52l56-60l-23-26c-35-39-48-50-103-76c-27-13-61-37-75-52l-25-27l25,7c14,3,36,9,50,12c21,6,16-2-28-46
		c-51-52-62-73-42-85c12-8,106,40,139,72c14,13,40,31,56,40c17,8,55,34,85,57s95,61,144,85c82,40,93,43,145,38
		c109-12,178-56,191-124c4-21,15-63,23-93c9-30,24-84,33-120c45-174,126-378,176-440c15-19,28-40,28-46c0-12,24-57,82-152
		s110-140,218-186c88-38,95-43,101-76c4-19,14-39,23-46c9-6,16-21,16-32c0-12,9-26,20-32c15-8,20-21,20-50c0-50,15-90,35-90
		c8,0,15-9,15-21c0-38,19-60,45-53c23,6,25,3,25-26c0-23,5-33,19-37c11-3,21-13,24-24s21-26,41-34c41-17,47-35,13-35
		c-12,0-39-14-60-31l-37-30V16c0-111-12-162-46-200c-11-12-36-48-55-79c-27-46-34-68-34-109c0-30,6-58,15-69c14-17,15-15,20,30
		c6,57,25,70,35,23c13-60,44-80,37-24c-3,29,0,35,25,44c30,10,39,25,64,112c12,42,49,134,70,172c5,10,9,24,9,32c0,24,40,47,61,36
		c10-6,32-10,50-10c40,0,189-39,208-54c7-6,32-16,55-21c30-8,42-17,44-32c2-11,12-29,23-39c12-11,19-30,19-56c0-31,5-41,24-50
		c19-8,26-20,28-47c2-25,9-39,24-45c14-7,25-24,30-49c5-23,18-45,29-51c10-6,28-21,38-33c10-13,25-23,32-23c8,0,18-14,23-32
		c5-21,16-34,29-38c12-3,31-17,43-33c12-15,30-27,40-27c9,0,23-7,30-15s18-15,25-15c8,0,22-11,33-25s27-25,35-25c22,0,64-44,82-86
		c8-19,22-37,32-41s26-14,36-23c17-16,16-19-2-61c-17-37-18-55-12-119c5-41,9-68,10-59c0,9,7,22,15,28c11,9,15,5,19-19
		c4-16,4-36,1-44c-7-17,57-147,85-175c15-15,20-33,19-70c0-27,3-55,7-60c10-17,65-43,65-31c0,6-7,13-15,16c-21,8-19,60,2,68
		c23,9,40-15,60-84c8-30,19-59,24-65c5-5,9-21,9-36c0-34,71-99,108-99h25l-25,23c-38,35-43,62-17,88c24,24,21,66-9,107
		c-35,49-62,97-61,112c0,22,63-52,131-155c68-104,81-115,122-114c17,0,25,3,18,6c-22,9-43,62-40,103c2,33-3,46-28,70
		c-60,60-102,114-117,153c-4,10-20,25-37,35c-16,9-35,29-41,44c-6,14-24,38-40,52s-29,32-29,39c0,22-37,86-61,105
		c-22,19-22,20-10,123c7,57,14,138,17,179c8,136,11,150,28,169c12,13,15,27,10,45c-4,19-2,27,10,32c29,11,40,43,21,64
		c-13,14-14,22-4,43c15,33,6,55-26,67c-15,6-23,14-20,20c11,18-15,50-40,50c-31,0-31,7-4,29c18,14,20,21,10,38c-6,12-20,24-30,28
		c-11,3-21,16-23,28c-2,15-13,25-35,31c-26,8-33,16-35,40c-2,23-9,32-26,34c-17,3-21,8-16,26c3,14-1,27-10,35s-16,22-16,31
		c0,10-11,27-25,38s-25,25-25,31c0,23-41,33-86,21c-53-15-66-7-35,21c30,28,21,44-23,43c-30-1-36,2-31,16c9,27-5,50-30,50
		c-12,0-28,7-35,15c-11,13-8,21,17,48c17,18,34,42,37,54c4,12,20,34,36,50c16,15,35,40,43,56c8,15,41,56,75,91
		c97,103,186,134,324,111c56-9,98,11,98,48c0,19,11,26,78,45c42,13,109,35,147,48c39,14,86,29,105,33c19,5,58,20,85,34
		c105,53,254,94,385,106c177,16,461,17,489,1c12-6,30-8,39-4c26,10,122,13,128,3c7-13,68-11,81,2c7,7,38,9,84,5c112-8,121-10,156-28
		c17-10,61-20,97-22c47-3,78-11,110-30c50-29,67-32,96-14c17,11,29,8,79-20c61-34,117-41,150-20c15,9,27,6,66-15c58-33,103-35,113-7
		c7,20,8,20,40-4c39-28,117-43,137-26c11,9,23,9,46,1c38-13,99-14,118-2c10,6,27,3,52-10c40-20,99-25,114-10c16,15,71,16,89,2
		c11-9,52-14,133-15c65-1,124-5,132-10s29-3,53,5c34,11,43,10,68-4c31-19,66-22,75-8c3,6,19,4,39-4c37-16,223-18,243-2
		c7,5,33,6,59,2c31-4,61-1,92,9c26,8,59,18,75,21c18,4,27,12,27,24c0,23-16,30-100,46c-36,7-132,26-215,43c-121,24-187,31-344,37
		c-107,4-206,8-220,10s-75,6-136,10c-106,6-190,13-395,36c-52,6-144,21-205,34c-120,27-309,60-395,70c-30,4-111,16-180,28
		c-113,19-164,20-550,20c-279,0-434-4-452-11c-14-6-64-16-110-22c-80-11-166-33-328-85c-75-24-246-58-352-70c-52-6-58-4-69,17
		c-7,12-23,31-36,41c-17,14-21,25-17,43c3,13,2,30-4,37c-21,27-22,63-2,80c11,9,20,27,20,40c0,15,9,29,25,37c30,16,33,54,8,90
		c-16,22-16,24,2,34c48,28,68,53,67,83c-1,28,2,31,40,36c59,8,133,82,109,110c-7,9,3,17,35,31c40,16,45,22,40,42c-6,21-3,24,20,24
		c34,0,94,29,94,45c0,7-7,19-16,26c-14,11-8,16,48,34c59,19,63,22,66,53c3,30,0,34-37,49c-44,17-51,28-23,37c22,7,55,62,46,77
		c-9,16-69,39-99,39s-32,11-5,28c24,15,26,54,3,73c-18,15-165,17-323,4l-85-7l19,21c18,20,18,22,2,40c-10,11-31,23-46,26
		c-25,5-165-14-226-31c-17-4-23,0-28,22c-7,26-8,27-69,20c-34-3-128-9-209-11c-122-5-148-3-148,8s29,15,133,20c140,5,208,24,215,58
		c5,28-53,39-212,40c-169,1-167,4,29,44c66,14,126,32,134,39c35,36-18,58-116,48c-54-5-75,10-30,21c12,4,31,13,42,20
		c16,13,17,17,6,31c-25,30-86,23-383-48c-54-12-98-20-98-17s35,18,78,33c207,71,282,109,282,142c0,11-23,28-33,26
		C3176.8,2763,3105.8,2739,3020.8,2710z"/>
</g>
</svg>
