<?xml version="1.0" encoding="UTF-8" standalone="no"?>
<!DOCTYPE svg PUBLIC "-//W3C//DTD SVG 1.1//EN" "http://www.w3.org/Graphics/SVG/1.1/DTD/svg11.dtd">
<svg width="40" height="40" viewBox="0 0 40 40" xmlns="http://www.w3.org/2000/svg" xmlns:xlink="http://www.w3.org/1999/xlink">
<g fill="#f5bb00">
    <rect x="10"  y="0" width="10" height="10"  />
    <rect x="20"  y="0" width="10" height="10"  />
    <rect x="10"  y="10" width="10" height="10"  />
    <rect x="30"  y="30" width="10" height="10"  />
</g>
<g fill="#00857e">
    <rect x="10"  y="20" width="10" height="10"  />
    <rect x="30"  y="0" width="10" height="10"  />
    <rect x="30"  y="20" width="10" height="10"  />
    <rect x="0"  y="30" width="10" height="10"  />
</g>
<g fill="#f7fffb">
    <rect x="20"  y="20" width="10" height="10"  />
    <rect x="20"  y="30" width="10" height="10"  />
    <rect x="20"  y="10" width="10" height="10"  />
    <rect x="0"  y="20" width="10" height="10"  />
</g>
<g fill="#7bbfca">
    <rect x="30"  y="10" width="10" height="10"  />
    <rect x="10"  y="30" width="10" height="10"  />
    <rect x="0"  y="0" width="10" height="10"  />
    <rect x="0"  y="10" width="10" height="10"  />
</g>
<g stroke-width="2" stroke="#000">
    <line x1="0" y1="1" x2="40" y2="1" /> 
    <line x1="0" y1="10" x2="40" y2="10" /> 
    <line x1="0" y1="20" x2="40" y2="20" /> 
    <line x1="0" y1="30" x2="40" y2="30" /> 
    <line x1="0" y1="39" x2="40" y2="39" /> 
    <line x1="1" y1="0" x2="1" y2="40" /> 
    <line x1="10" y1="0" x2="10" y2="40" /> 
    <line x1="20" y1="0" x2="20" y2="40" /> 
    <line x1="30" y1="0" x2="30" y2="40" /> 
    <line x1="39" y1="0" x2="39" y2="40" /> 
</g>
</svg>
