<?xml version="1.0" encoding="utf-8"?>
<svg version="1.1" id="Layer_1" xmlns:svg="http://www.w3.org/2000/svg"
	 xmlns="http://www.w3.org/2000/svg" xmlns:xlink="http://www.w3.org/1999/xlink" x="0px" y="0px" viewBox="0 0 758.8 321.4"
	 style="enable-background:new 0 0 758.8 321.4;" xml:space="preserve">
<g id="g3" transform="matrix(0.99183658,0,0,0.99183658,20.622508,18.368578)">
	<g id="g5">
		<path id="path13" d="M138.6,34.6c-53.8,0-98.4,41.2-105.3,94.4h210.6C237,75.8,192.4,34.6,138.6,34.6 M66.7,104.1
			c13.7-26.5,40.8-44.6,71.9-44.6c31.1,0,58.2,18.1,71.9,44.6H66.7z M615.1,222.2V-15.2h-24.9V247h154v-24.9L615.1,222.2
			L615.1,222.2z M562-15.2h-24.9v65.8c-29.3-41.8-77.9-69.1-132.7-69.1c-55.7,0-104.9,28.2-134.1,71.1
			c-28.7-42.9-77-71.1-131.8-71.1c-87.9,0-159.4,72.7-159.4,162c0,89.3,71.5,162,159.4,162c54.7,0,103.1-28.2,131.8-71.1
			c29.2,42.9,78.4,71.1,134.1,71.1c54.8,0,103.3-27.4,132.7-69.1v63.8h207.1v-24.9H562C562,275.3,562-15.2,562-15.2z M404.5,280.6
			c-52.7,0-98.5-29.9-121.4-73.6h-25.4c-22.5,43.7-67.4,73.6-119,73.6c-74.2,0-134.5-61.5-134.5-137.1C4.1,67.9,64.4,6.4,138.6,6.4
			c64.6,0,118.8,46.7,131.6,108.8C283.3,53.1,338.5,6.4,404.5,6.4c75.7,0,137.2,61.5,137.2,137.1
			C541.7,219.1,480.1,280.6,404.5,280.6 M404.5,34.6c-60.1,0-109,48.8-109,108.9c0,4.7,0.3,9.2,0.9,13.7H33.2
			c6.6,53.6,51.3,95.2,105.4,95.2c35.5,0,66.8-18,86.1-45.4h-32.9c-14.3,12.8-32.8,20.5-53.1,20.5c-31.4,0-58.6-18.5-72.2-45.4
			h144.4h91.8c15.6,41,55.4,70.3,101.9,70.3c60.1,0,109-48.9,109-108.9C513.4,83.4,464.6,34.6,404.5,34.6 M404.5,227.5
			c-46.4,0-84.1-37.7-84.1-84c0-46.3,37.7-84,84.1-84c46.4,0,84.1,37.7,84.1,84C488.6,189.8,450.8,227.5,404.5,227.5"/>
	</g>
</g>
</svg>
