<?xml version="1.0" encoding="utf-8"?>
<svg version="1.1" baseProfile="tiny" id="Layer_1" xmlns="http://www.w3.org/2000/svg" xmlns:xlink="http://www.w3.org/1999/xlink"
	 x="0px" y="0px" viewBox="0 0 231.5 92.3" overflow="visible" xml:space="preserve">
<g>
	<path d="M0,63.5c1.2-2.5,3-4.7,5.1-6.4c4.9-4,10.7-6,16.9-6.9c1-0.1,2.2,0,2.9-0.5c1-0.8-0.3-1.7-0.6-2.6
		c-1.7-6.7-2.3-13.5-1.9-20.3c0.2-3.5,0.8-7,1.5-10.5c0.6-3.1,1.4-6.1,2.3-9.1C26.9,5,27.8,3,28.7,0.9C28.9,0.5,29,0.2,29.3,0
		c6.4,16.1,8.9,32.4,4,49.4c2,0.2,4,0.4,6,0.5c15.3,1,29.6,5.2,42.2,14c4.5,3.1,8.3,7,10.9,11.9c1.3,2.4,2.1,5.1,2.7,7.8
		c0.4,1.8,0.7,3.5,0.9,5.3c0.1,1-0.3,1.4-1.2,1.6c-3.9,1.2-7.8,1.7-11.9,1.7c-11.7,0-22-4.1-31.1-11.2c-4.2-3.3-8-7.2-12-10.8
		c-2.4-2.1-4.7-4.4-7.2-6.3c-5.2-4.1-11.2-6.4-18-6.2C10,57.8,6,59.4,2.3,62.2c-0.7,0.5-1.4,1.1-2.1,1.6C0.2,63.7,0.1,63.6,0,63.5z"
		/>
	<path d="M126.8,28.8c-1.1-1.5-2-2.9-3.1-4.1c-0.5-0.6-1.5-1.1-2.3-1.1c-2.3-0.1-4.7-0.2-7,0c-3,0.3-4.9,2.7-4.9,5.6
		c0,7.8,0,15.7,0,23.5c0,3.1,2.3,5.5,5.4,5.7c1.1,0.1,2.2,0.1,3.4,0.1c4.1-0.1,6.3-2.2,6.7-6.3c0.3-3.9,0.3-3.9-3.6-3.9
		c-1.9,0-3.8,0-5.8,0c0-2.8,0-5.4,0-8.2c0.7-0.1,1.4-0.2,2.2-0.2c5,0,10,0,15.1,0c0.9,0,1.2,0.3,1.2,1.1c0,4.5,0.2,9-0.1,13.4
		c-0.3,5.4-3.1,9.3-8.1,11.2c-5.6,2.1-11.5,2.1-17.2,0.1c-5.2-1.9-8.3-6.6-8.3-12.1c0-8.2,0-16.5,0-24.7c0-7.3,4.9-12.8,12.1-13.5
		c3.4-0.3,6.8-0.3,10.2-0.1c4.8,0.3,8.4,2.8,10.9,6.9c1.7,2.9,2,2.2-1,3.9c-1.2,0.7-2.4,1.4-3.7,2C128.1,28.4,127.3,28.6,126.8,28.8
		z"/>
	<path d="M201.2,66.2c0-3,0-5.8,0-8.5c0-13.3,0-26.7,0-40c0-1.8,0-1.9,1.9-1.9c3.9,0,7.8,0,11.7,0c4.9,0,9.7,0,14.6,0
		c1.9,0,2.1,0.2,2.1,2.1c0,1.6,0,3.2,0,4.8c0,1.5-0.2,1.7-1.7,1.7c-5.9,0-11.8,0-17.7,0c-1,0-1.3,0.3-1.3,1.3c0.1,3.2,0.1,6.4,0,9.6
		c0,1,0.4,1.2,1.2,1.1c4.9,0,9.7,0,14.6,0c1.1,0,1.5,0.3,1.5,1.4c0,2,0,4.1,0,6.1c0,1.1-0.8,1.2-1.6,1.2c-1.7,0-3.5,0-5.2,0
		c-3.1,0-6.2,0-9.3,0c-0.9,0-1.2,0.2-1.2,1.2c0,6.2,0,12.4,0,18.7c0,1.1-0.3,1.4-1.4,1.4C206.7,66.2,204,66.2,201.2,66.2z"/>
	<path d="M72.9,11c3.3,0.1,3.4,0.1,3.2,3.2c-1,13.6-9.2,25.6-24.3,29.2c-3.1,0.8-6.3,1.5-9.6,1.3c-1,0-1.4-0.2-1.2-1.4
		c0.2-1.1,0.2-2.2,0.4-3.3c0.2-1.2,0.6-2.4,0.9-3.5c0.1-0.3,0.2-0.6,0.2-0.8c-0.3-1.3,0.2-2.1,1-3.2c0.9-1.2,1.1-2.9,1.7-4.4
		c0.8-2.2,1.7-4.3,3.2-6.1c4.2-5,9.6-8,15.8-9.5C66.9,11.9,69.9,11.5,72.9,11z"/>
	<path d="M191.2,66.2c-3,0-5.9,0-9,0c0-0.7,0-1.3,0-2c0-15-0.1-29.9-0.1-44.9c0-1.1-0.3-2.6,0.3-3.3c0.5-0.6,2.1-0.2,3.2-0.2
		c1.5,0,3,0,4.5,0c1,0,1.4,0.5,1.4,1.5c-0.1,15.7-0.1,31.3-0.1,47C191.4,64.9,191.3,65.5,191.2,66.2z"/>
	<path d="M169.9,40.7c3.7-3.5,5.2-7.6,4.6-12.4c-0.6-4.4-2.6-7.8-6.4-10.2c-2.9-1.8-6.2-2.2-9.5-2.2c-5.4-0.1-10.7,0-16.1-0.1
		c-1.3,0-1.6,0.4-1.6,1.6c0,11.6,0,23.1,0,34.6c0,4.3,0,8.6,0,12.9c0,1,0.3,1.4,1.4,1.4c2.9,0,5.9,0,8.8,0c3.7,0,7.4,0.1,11.1-0.3
		c5.3-0.5,9.2-3.2,11.3-8.2c0.9-2.3,1-4.7,1-7.1c0.1-2.9-1-5.4-2.7-7.7C171.2,42.2,170.6,41.5,169.9,40.7z M149.9,25.5
		c0-0.9,0.3-1.2,1.2-1.2c2.9,0,5.8,0,8.7,0c2.9,0,5.3,2.3,5.5,5.2c0,0.2,0,0.5,0,0.7c0,3.2-1.9,5.9-4.7,6.1c-3.5,0.2-6.9,0-10.5,0
		c-0.1-0.5-0.1-1-0.1-1.4c0,0,0-0.1,0-0.1c-0.1-2.3,0-4.6-0.1-6.8C149.9,27.2,149.9,26.4,149.9,25.5
		C149.9,25.6,149.9,25.6,149.9,25.5C149.9,25.6,149.9,25.5,149.9,25.5z M163.8,55.9c-0.3,0.3-0.6,0.5-1,0.8
		c-0.7,0.5-1.6,0.9-2.5,0.9c-3.1,0.1-6.2,0-9.3,0c-0.6,0-1-0.2-1-0.9c0-3.6,0-7.3,0-10.9c0-0.2,0.1-0.4,0.2-0.7
		c3.6,0,7.1-0.1,10.7,0c2.1,0.1,3.9,1.9,4.3,4.1C165.6,51.7,165.7,54.1,163.8,55.9z"/>
</g>
</svg>
