<?xml version="1.0" encoding="utf-8"?>
<svg version="1.1" id="Layer_1" xmlns="http://www.w3.org/2000/svg" xmlns:xlink="http://www.w3.org/1999/xlink" x="0px" y="0px"
	 viewBox="0 0 90 90" xml:space="preserve">
<style type="text/css">
	.st0{fill:#FFFFFF;}
</style>
<path class="st0" d="M86.68,22.17c0,17.15,0,33.23,0,49.58c-27.8,0-55.38,0-83.37,0c0-16.09,0-32.3,0-49.05
	c1.21,0.98,2.35,1.78,3.36,2.71c9.75,9.07,19.45,18.19,29.22,27.24c6.28,5.81,11.71,5.85,17.98,0.06
	C64.6,42.8,75.26,32.8,86.68,22.17z"/>
<path class="st0" d="M7.82,18.25c25.09,0,49.08,0,74.24,0c-3.04,2.83-5.4,5.02-7.75,7.22c-8.14,7.61-16.32,15.18-24.4,22.85
	c-3.16,2.99-6.11,3.62-9.53,0.39C29.86,38.79,19.26,28.94,7.82,18.25z"/>
</svg>
