<?xml version="1.0" encoding="utf-8"?>
<svg version="1.1" id="Layer_1" xmlns="http://www.w3.org/2000/svg" xmlns:xlink="http://www.w3.org/1999/xlink" x="0px" y="0px"
	 viewBox="0 0 54.63 28.11" style="enable-background:new 0 0 54.63 28.11;" xml:space="preserve">
<g id="_x39_GZQYb_00000071552009688875234540000010045465443908305054_">
	<path d="M54.36,18.52c-0.4-0.31-0.91-0.55-1.19-0.96c-3.21-4.63-6.38-9.29-9.57-13.95c-0.22-0.32-0.46-0.64-0.93-0.93
		c0,2.57,0,5.13,0,7.7c0,2.6,0,5.19,0,7.83c-0.74,0.25-1.18,0.24-1.18-0.69C41.5,11.88,41.5,6.24,41.5,0.56
		c0.86-0.39,1.38-0.13,1.89,0.63c3.04,4.51,6.13,8.98,9.21,13.47c0.2,0.29,0.41,0.58,0.81,1.14c0-5.29,0-10.28,0-15.34
		c0.49,0,0.82,0,1.22,0c0,5.97,0,11.87,0,17.78C54.54,18.34,54.45,18.43,54.36,18.52z"/>
	<path d="M16.12,9.35c-0.1,2.7-0.75,5.16-2.7,7.13c-3.41,3.44-9.2,2.89-11.71-1.24c-2.25-3.71-2.25-7.62-0.17-11.41
		c1.53-2.8,4.59-4.2,7.59-3.74c3.27,0.49,5.81,2.9,6.57,6.31C15.92,7.36,15.98,8.36,16.12,9.35z M1.37,8.86
		c-0.01,2.43,0.5,4.33,1.45,5.78c2.39,3.68,7.32,3.97,10.11,0.59c2.59-3.12,2.44-9.06-0.3-12.04C10.12,0.46,6,0.45,3.51,3.19
		C1.93,4.91,1.46,7.03,1.37,8.86z"/>
	<path d="M19.77,10.77c0,2.39,0,4.89,0,7.49c-0.43,0.04-0.76,0.07-1.2,0.11c0-5.99,0-11.88,0-17.92c2.31,0,4.65-0.4,6.92,0.43
		c1.9,0.7,2.93,2.4,2.88,4.53c-0.06,2.32-1.22,4.1-3.41,4.66C23.32,10.5,21.59,10.54,19.77,10.77z M19.79,9.52
		c1.56-0.13,3.05-0.09,4.46-0.4c1.94-0.41,2.89-1.95,2.8-4.03c-0.08-1.87-1.1-3.12-3.05-3.42c-1.36-0.21-2.75-0.18-4.22-0.27
		C19.79,4.13,19.79,6.68,19.79,9.52z"/>
	<path d="M30.4,18.36c0-6.07,0-11.97,0-17.98c2.82,0,5.57-0.02,8.32,0.03c0.26,0,0.51,0.46,0.77,0.71
		c-0.07,0.11-0.14,0.22-0.22,0.33c-2.5,0-5,0-7.6,0c0,2.32,0,4.54,0,6.94c1.77,0,3.55,0.02,5.33-0.01c0.71-0.01,1.06,0.19,0.86,1.08
		c-2.04,0-4.1,0-6.22,0c0,2.64,0,5.14,0,7.81c2.19,0,4.33,0,6.48,0c0.32,0,0.66-0.05,0.95,0.03c0.2,0.06,0.36,0.3,0.53,0.46
		c-0.18,0.19-0.36,0.54-0.55,0.56c-0.87,0.06-1.76,0.04-2.64,0.04C34.45,18.37,32.5,18.36,30.4,18.36z"/>
	<path d="M0.45,19.62c2.12,0,4.23,0,6.46,0c0.09,0.51,0.17,1.05,0.28,1.67c-0.86,0.04-1.6,0.08-2.45,0.12c0,2.16,0,4.27,0,6.45
		c-0.73,0-1.35,0-2.09,0c0-2.13,0-4.23,0-6.45c-0.78-0.03-1.44-0.06-2.19-0.1C0.45,20.75,0.45,20.22,0.45,19.62z"/>
	<path d="M51.11,25.45c0.44,1.44,1.05,1.58,3.11,0.82c0.5,1.15,0.45,1.28-0.71,1.63c-2.36,0.71-4.2-0.4-4.33-2.63
		c-0.12-2,1.04-3.39,2.84-3.37c1.75,0.01,2.69,1.29,2.5,3.55C53.41,25.45,52.28,25.45,51.11,25.45z M50.92,24.13
		c0.07,0.08,0.14,0.17,0.21,0.25c0.53,0,1.05,0,1.58,0c0.07-0.09,0.14-0.18,0.21-0.27c-0.33-0.34-0.67-0.69-1-1.03
		C51.59,23.44,51.26,23.78,50.92,24.13z"/>
	<path d="M30.19,25.1c-0.02,1.81-1.2,3.04-2.87,3c-1.72-0.03-2.81-1.31-2.77-3.23c0.04-1.83,1.17-3,2.88-2.98
		C29.17,21.92,30.22,23.13,30.19,25.1z M25.83,24.92c0.66,0.73,1.04,1.54,1.52,1.6c0.86,0.12,1.09-0.74,1.1-1.49
		c0.01-0.75-0.18-1.61-1.05-1.56C26.94,23.5,26.51,24.27,25.83,24.92z"/>
	<path d="M15.68,26.24c0.58,1.05,0.07,1.42-0.81,1.66c-2.56,0.69-4.41-0.59-4.32-3.03c0.07-1.93,1.34-3.13,3.13-2.97
		c1.61,0.14,2.46,1.47,2.18,3.55c-0.53,0-1.08,0-1.62,0c-0.56,0-1.11,0-1.68,0C12.8,26.86,13.5,27.03,15.68,26.24z M14.52,24.4
		c-0.52-0.59-0.84-0.95-1.15-1.31c-0.36,0.34-0.73,0.69-1.09,1.03c0.08,0.09,0.15,0.18,0.23,0.28C13.03,24.4,13.56,24.4,14.52,24.4z
		"/>
	<path d="M21.72,25.47c-1.23,0-2.32,0-3.45,0c0.45,1.42,1.07,1.56,3.16,0.77c0.56,0.84,0.33,1.33-0.62,1.62
		c-2.38,0.74-4.24-0.27-4.44-2.47c-0.11-1.26,0.11-2.56,1.34-3.07c0.81-0.34,2-0.36,2.8-0.02C21.71,22.81,21.81,24.09,21.72,25.47z
		 M17.85,24.33c0.99,0,1.56,0,2.13,0c0.05-0.1,0.09-0.19,0.14-0.29c-0.34-0.32-0.72-0.92-1-0.88
		C18.72,23.23,18.41,23.77,17.85,24.33z"/>
	<path d="M39.28,26.18c0.99,0,1.77,0,2.6,0c0.11,0.61,0.21,1.11,0.31,1.69c-1.64,0-3.18,0-4.8,0c0-2.75,0-5.45,0-8.23
		c0.61,0,1.18,0,1.89,0C39.28,21.76,39.28,23.86,39.28,26.18z"/>
	<path d="M49.3,20.55c-0.48,0.13-0.97,0.14-1.04,0.31c-0.13,0.33-0.05,1.09-0.02,1.1c1,0.06,0.84,0.77,0.85,1.45
		c-0.36,0.07-0.71,0.13-1.16,0.21c0,1.36,0,2.74,0,4.22c-0.64,0-1.17,0-1.89,0c0-1.07,0.05-2.17-0.03-3.27
		c-0.02-0.38-0.39-0.72-0.51-1.11c-0.12-0.39-0.24-1.15-0.17-1.17c0.95-0.31,0.6-1.18,0.82-1.78c0.3-0.83,1.87-1.6,2.58-1.15
		C49.03,19.55,49.1,20.11,49.3,20.55z"/>
	<path d="M33.14,23.64c0,1.41,0,2.77,0,4.21c-0.61,0-1.14,0-1.79,0c0-0.87,0.05-1.7-0.02-2.53c-0.06-0.7,0.43-1.62-0.71-2
		c-0.12-0.04-0.08-1.12,0.02-1.14c0.85-0.2,0.66-0.85,0.75-1.41c0.17-1.02,1.74-1.92,2.6-1.42c0.32,0.18,0.41,0.75,0.52,0.95
		c-0.62,0.49-1.06,0.85-1.37,1.09c0.62,0.72,1.03,1.21,1.62,1.9C34.02,23.45,33.66,23.53,33.14,23.64z"/>
	<path d="M8.3,27.9c-0.57,0-1.04,0-1.61,0c0-1.91,0-3.8,0-5.96c0.64,0.17,1.21,0.31,1.77,0.46c-0.03,0.12-0.05,0.23-0.08,0.35
		c0.49-0.3,0.98-0.6,1.65-1.01c0.12,0.73,0.22,1.3,0.33,1.97C7.51,24,8.6,26.22,8.3,27.9z"/>
	<path d="M44.58,27.87c-0.59,0-1.09,0-1.66,0c0-1.93,0-3.8,0-5.76c0.53,0,1.06,0,1.66,0C44.58,24.01,44.58,25.88,44.58,27.87z"/>
	<path d="M43.78,21.65c-0.49-0.67-1-1.06-0.99-1.44c0.01-0.33,0.64-0.92,0.93-0.88c0.39,0.05,0.91,0.55,1.01,0.95
		C44.8,20.56,44.26,20.99,43.78,21.65z"/>
</g>
</svg>
