<?xml version="1.0" encoding="utf-8"?>
<!-- Generator: Adobe Illustrator 26.0.3, SVG Export Plug-In . SVG Version: 6.00 Build 0)  -->
<svg version="1.1" baseProfile="tiny" id="Layer_1" xmlns="http://www.w3.org/2000/svg" xmlns:xlink="http://www.w3.org/1999/xlink"
	 x="0px" y="0px" viewBox="0 0 389 389" overflow="visible" xml:space="preserve">
<g id="gIWoCX.tif">
	<g>
		<path fill="#FFFFFF" d="M389,209.5c0,59.8,0,119.5,0,179.5c-60.2,0-120.4,0-180.5,0c1.2-0.3,2.5-0.8,3.7-1
			c30.2-2.5,58-12.1,83.6-28.1c11.8-7.4,22.7-16,32-25.3c-27.6-27.6-55.1-55.1-82.4-82.4c-27.6,21.9-57.6,24.7-89.5,8
			c-1.2,2.7-2.2,5.2-3.4,7.9c-10.6-7.9-20.6-15.5-31.1-23.4c-3.4,11.9-6.5,23-9.7,34.1c-3.2,11.1-6.4,22.1-9.6,33.5
			c-5.1-1.6-9.7-3.1-14.3-4.4c-1.4-0.4-3.6-0.5-4.4,0.3c-7.8,7.8-15.4,15.8-23.1,23.8c21.8,24.6,60.9,46,96.4,52.8
			c8.3,1.6,16.6,2.7,24.9,4.1c-60.5,0-121,0-181.5,0C0,259.3,0,129.7,0,0c129.7,0,259.3,0,389,0c0,60.2,0,120.4,0,180.5
			c-0.3-1.4-0.8-2.8-1-4.2c-1.2-7.7-2-15.5-3.7-23c-8.5-38.2-27.9-70.2-56-97.3C293.4,22.2,251.9,3.7,203.5,1.4
			C163.1-0.5,125.7,9.9,91.6,32c-11.1,7.2-21.5,15.4-30.4,25c27.6,27.5,54.8,54.8,82.1,82.1c32.1-25.3,65.2-26.6,99.5-3.6
			c0.6-2.6,1.2-5.1,1.9-7.8c7.2,2.2,14.2,4.4,21.6,6.6c4.8-19.5,9.4-38.4,14.1-57.8c6.3,4.1,12.1,7.8,19.7,12.7
			c7.1-7.8,14.4-15.6,21.4-23.6c0.9-1.1,1.2-2.7,2-5c1.3-0.3,3.6-0.9,6.3-1.6c-0.8,2.8-1.4,5-2,7.2c-2.4,0-4.5,0.5-5.7,1.9
			c-7.4,7.9-14.6,15.9-21.8,23.8c-7.3-4.6-12.7-8.2-18.6-11.9c-4.8,19.5-9.3,38.1-13.9,57.1c-7.4-2.3-14.3-4.4-21.2-6.5
			c-2.3,4.5-1.5,7.5,1.8,10.9c19.8,20.4,26.5,44.6,19.9,72.3c-2.9,12.5-9.3,23.3-17.4,32.5c27.6,27.6,54.9,54.9,82.4,82.4
			c0.2-0.1,0.7-0.5,1.2-0.9c24.4-25.2,41.1-54.8,49.1-89.1C386.1,229.1,387.3,219.2,389,209.5z M225.6,216.8c1-3,1.7-6.1,3.1-8.9
			c1.3-2.5,2.9-5.7,5.1-6.8c5.1-2.4,8.8-5.7,11.2-10.8c0.7-1.4,2-2.6,3.3-3.5c4.6-3.3,5.9-7.4,3.3-12.3c-1.6-3.1-3.8-6-5.8-9.1
			c2.1,1.2,4,2.2,5.9,3.3c0.4-0.4,0.7-0.9,1.1-1.3c-2.1-2.5-4.1-4.9-6.9-8.3c10.7,4.5,15.5,12.7,20.5,21c-1.5-15-8.6-27-19.1-37.4
			c-21.6-21.3-54.9-27.7-82-15.2c-21.3,9.8-35.1,26.2-41.5,49.6c6.3-0.1,6.3,3.3,6,7.1c-0.7,9,2.1,16.9,8,23.8
			c2.3,2.6,4.9,5.4,6,8.5c3.3,9.2,6.4,18.5,12.7,26.2c3.1,3.8,5.8,7.9,8.7,11.9c5.5,7.9,12.8,12.9,22.6,13.8
			c19.7,2,37.5-3.1,53.1-15.3c3.5-2.7,6.5-5.8,9.8-8.8c-0.5-0.6-1-1.3-1.5-1.9c-3.2,1.9-6.3,3.9-9.5,5.8c-3.8,2.2-7.4,4.9-12.2,1.5
			c-2.6-1.9-5.8-3.9-8.9-4.1c-5.7-0.5-11.6-0.3-17.3,0.6c-4.8,0.7-10.1,1.7-13.8,4.5c-7.8,5.7-8.1,6.2-15.5-0.6
			c4-2.1,7.8-3.9,11.6-6c5.1-2.8,6.9-5.8,6.2-10.4c-5.5,1-10.9,2-16.4,3c-2.5,0.4-5.6,0.1-4.8-3c1.6-6.5,3.9-12.9,6.3-19.2
			c1.6-4.1,5.3-7.9,5.3-11.9c0-4.3,0.4-8,2.1-11.8c2.4-5.4,1.1-7.4-4.3-10.1c-5.3-2.7-10.3-5.9-15.5-8.8c-6.4-3.7-12.7-7.2-20.3-3
			c-1.9,1.1-4.2,1.6-6.2,2.3c-5.4-6.6,1.8-9.9,2.6-14.3c3.6,1.2,6.7,2.1,10.7,3.4c-4.8-11-4.1-11.5,3.2-15.5c0.6-0.3,1-0.8,1.5-1.3
			c5.9-5.1,12.8-6.6,20.6-6.3c3.3,0.1,7.5-0.2,7.9-5.3c0.1-0.6,1.7-1,2.6-1.5c0.6,1.9,1.7,3.8,1.7,5.8c0,2.3-0.8,4.6-1.5,8
			c-11.7,3.3-18.2,13.1-22.2,25.5c0.5,0.4,1.7,2.1,2.4,1.9c3.7-1.1,4.5,2.3,6.5,3.8c2.4,1.7,5.4,2.8,8.2,3.7c2.8,0.8,5.8,1,8.7,1.5
			c3,0.5,3.6,2.3,3.2,5c-0.4,2.6-1.1,5.7-0.1,7.8c2.1,4.2,0.7,7.6-0.8,11.3c-0.8,2.1-1.7,4.4-1.6,6.6c0.4,7,1.4,14,1.8,21
			c0.3,4.5,2.3,5.2,6.3,4c10.4-3.3,20.3-7.1,26.3-17.1c0.1-0.1,0.3-0.2,0.4-0.2c-1.4,4.1-2.8,8.3-4.2,12.6c1.8,0.6,3.1,1,4.2,1.3
			c0.4,1.7,0.7,3.1,1.1,4.5c1.3-0.8,2.9-1.3,3.9-2.3c3.4-3.5,7.7-4.3,12.5-2.2c5.3,2.3,8.9,1.4,10.3-4c2-7.5,2.9-15.2,4-22.9
			c0.4-2.6-1-2.9-3.7-2.8c-8.4,0.3-13.3,7-20.1,10C230.3,214.3,228,215.6,225.6,216.8z M57.1,328.8c8-7.1,16.1-14,23.7-21.4
			c2.5-2.4,4.3-2.8,7.3-1.7c3.9,1.5,8.1,2.5,12.5,3.8c3.4-11.7,6.6-22.8,9.7-33.9c3.2-11.3,6.4-22.6,9.8-34.5
			c10.5,7.9,20.8,15.6,31.5,23.7c0.9-2.5,1.5-4.3,2.1-6.1c-19.2-13.3-30.9-31.1-33.8-53.9c-2.9-22.9,3.7-43.3,18.2-59.8
			C110.4,117.2,83,89.9,55.7,62.6C-20.6,138.2-13.9,262.9,57.1,328.8z"/>
		<path d="M389,209.5c-1.7,9.8-2.9,19.6-5.1,29.2c-7.9,34.3-24.6,63.8-49.1,89.1c-0.4,0.5-1,0.8-1.2,0.9
			c-27.5-27.5-54.8-54.8-82.4-82.4c8-9.2,14.4-19.9,17.4-32.5c6.5-27.7-0.1-51.9-19.9-72.3c-3.3-3.4-4.1-6.4-1.8-10.9
			c6.9,2.1,13.8,4.2,21.2,6.5c4.6-18.9,9.2-37.5,13.9-57.1c5.8,3.7,11.3,7.2,18.6,11.9c7.2-7.9,14.4-15.9,21.8-23.8
			c1.3-1.3,3.4-1.9,5.7-1.9c0.6-2.2,1.2-4.4,2-7.2c-2.7,0.7-5.1,1.2-6.3,1.6c-0.9,2.2-1.1,3.9-2,5c-7.1,7.9-14.3,15.7-21.4,23.6
			c-7.5-4.9-13.4-8.6-19.7-12.7c-4.7,19.4-9.3,38.3-14.1,57.8c-7.4-2.3-14.4-4.4-21.6-6.6c-0.7,2.7-1.3,5.2-1.9,7.8
			c-34.3-23-67.5-21.7-99.5,3.6C116,111.8,88.8,84.5,61.2,57c8.9-9.6,19.3-17.8,30.4-25c34-22.1,71.4-32.5,111.9-30.6
			c48.4,2.3,89.9,20.8,124.8,54.5c28.1,27.1,47.4,59.1,56,97.3c1.7,7.6,2.5,15.4,3.7,23c0.2,1.4,0.7,2.8,1,4.2
			C389,190.2,389,199.8,389,209.5z M141.3,70.5c1.4,3.9,2.5,6.4,3.2,9c0.7,2.6,2,5.4,1.6,7.9c-0.9,6.9,1.5,12.2,5.9,17.2
			c8.4-9.8,16.6-13.5,28.7-13c-6.1,4.1-12.3,8.2-18.5,12.4c4.7,4.2,9,3.7,14,0c4.6-3.4,9.5-6.6,14.8-8.7c4.2-1.7,8.1-2.8,8.8-7.3
			c2.8-0.3,5.8,0.1,7.4-1.1c1.5-1.2,1.7-4.2,2.2-5.7c5,1,9.7,1.5,13.9,2.9c4.5,1.5,6.4-0.7,8.2-4c0.5-0.9,0.8-1.8,1.4-2.6
			c5.8-7.9,0-17.6,3.9-25.8c0.1-0.2-0.1-0.7-0.4-0.9c-2.9-2.3-2.4-5-1.1-8c0.3-0.8-0.5-2.1-0.8-3.1c-0.7-1.7-1.3-3.4-2.1-5
			c-0.5-1.1-1.3-2-2.1-3c-1-1.3-2-2.7-3-3.9c-0.8-1-1.6-2-2.7-2.7c-4.5-2.9-8.3-7-14-7.7c-1.2-0.2-3-1.5-3.4-1.1
			c-4.1,3.8-10.9,1.4-14.4,7.8c-2.3,4.1-4.3,7.3-3.6,12c0.7,4.7,1.2,9.5,1.3,14.3c0.1,1.9-1,3.8-2,6.9c-7-10.7-16-16.6-25.9-21.6
			c-2.4-1.2-4.3-3.6-6.4-5.5c-0.9-0.8-1.8-1.6-2.6-2.4c-0.4,0.3-0.9,0.7-1.3,1c1.8,2.6,3.1,5.7,5.4,7.6c8.3,7,15.6,14.6,19,25
			c2.2-1.1,3.9-2,4.7-2.4c-1,1.3-3.4,3-3.8,5.1c-1,4.7-4.4,5.6-8.2,6.8c-6.3,2-12.5,4.2-18.7,6.3c-0.3-0.1-0.7-0.1-1-0.2
			c2.3-1.4,4.6-2.7,7.7-4.6C151.4,71.6,147.2,71.1,141.3,70.5z M287.1,200.5c0.3,5.9,1.3,11.6,7.4,14.6c7.6,3.6,13.8,8.2,14.5,17.7
			c0.3,3.7,3.1,4.9,6.6,3.8c4-1.2,7.6-1,11.5,0.7c2.1,0.9,5,0,7.6-0.1c3-0.2,6.1-1.2,9-0.7c6.2,1,7.9,0.4,8.9-5.9
			c0.9-5.8,4-8.8,8.8-11.6c3.9-2.2,8.1-5.1,10.3-8.8c4.5-7.3,4.2-16.5,2.1-24c-2.2-8.1-5-17.9-15.9-20.2c-1-0.2-1.9-1.2-2.8-2
			c-4.6-4-23.6-7.1-29.4-5.9c-8.7,1.7-17.5,2.5-24.6,8.4c-2.8,2.3-5.6,4.7-8.1,7.3c-1.5,1.6-2.7,3.8-3.5,5.9
			c-1.3,3.1-2.7,6.3-3.1,9.5C286,193,286.8,196.7,287.1,200.5z M139.9,39.2c6.7,12.1,21.9,16.7,26.1,32.2c3.5-2.5,6.3-4.1,8.5-6.2
			c0.6-0.6,0.4-3.4-0.4-4c-4.9-3.8-9.7-8.3-15.3-10.7C152,47.6,144.9,45.5,139.9,39.2z"/>
		<path d="M181.5,389c-8.3-1.3-16.6-2.5-24.9-4.1c-35.4-6.8-74.6-28.2-96.4-52.8c7.6-7.9,15.2-16,23.1-23.8c0.8-0.8,3-0.6,4.4-0.3
			c4.6,1.2,9.1,2.8,14.3,4.4c3.3-11.4,6.5-22.5,9.6-33.5c3.2-11.1,6.3-22.2,9.7-34.1c10.5,7.9,20.5,15.4,31.1,23.4
			c1.2-2.7,2.2-5.2,3.4-7.9c31.9,16.6,61.9,13.8,89.5-8c27.3,27.3,54.7,54.7,82.4,82.4c-9.2,9.3-20.1,17.9-32,25.3
			c-25.6,16-53.4,25.5-83.6,28.1c-1.3,0.1-2.5,0.6-3.7,1C199.5,389,190.5,389,181.5,389z M218.3,339.4c2.4-2.3,4.9-4.7,7.2-6.9
			c-1.7-0.9-3.8-1.7-3.7-2.1c0.3-2.1,1.3-4.1,2-6.1c0.6-0.2,1.1-0.4,1.7-0.6c0.5,1.1,1,2.2,1.5,3.2c0.4-0.2,0.8-0.3,1.2-0.5
			c-1.3-5.6-2.4-11.2-3.9-16.7c-0.2-0.8-2.3-0.8-3.2-1.6c-1.9-1.6-3.5-3.6-5.3-5.4c1-0.7,2-1.4,3.1-2.1c-0.3,0-0.7,0-1-0.1
			c2.4-6.9,4.7-13.9,7.1-20.8c-0.5-0.3-1-0.6-1.5-0.8c-1.6,2-3.2,4.1-4.8,6.1c3.3,1.5,0.8,3.3,0,4.7c-1.8,3.3-3.9,6.5-6,9.7
			c-2.8,4.3-6.5,5-11.2,2.1c4.7-3.7,9.3-7.4,14-11.1c-0.3-0.5-0.6-0.9-0.9-1.4c-4.8,5.4-10.9,7.7-17.8,8.4c-2.2,0.2-4.2,1.4-6.3,2.1
			c-0.3,0.2-0.6,0.5-1,0.7c-9.1,4.7-14.2,12-14.7,21.6c1.9-0.5,3.7-1.1,5.6-1.6c0.8,3,2.2,6,2.1,8.9c-0.1,1.3-3.1,2.5-4.7,3.7
			c0.4,1.4,1.8,3.7,1.5,5.7c-0.8,5.1-1.9,10.3-3.6,15.2c-2.1,6.1-5,11.9-7.5,17.8c0.6,0.4,1.2,0.7,1.9,1.1c1.7-1.7,3.6-3.1,4.9-5
			c0.9-1.4,0.4-3.6,1.2-5c3.4-5.3,7-10.4,10.8-15.5c0.7-1,2.6-1.6,3.8-1.5c3,0.2,6,1,8.9,1.6l-0.2-0.2c1.6,0.4,3.6,1.6,4.8,1.1
			c4.5-1.8,8.7-4.2,13-6.4C217.5,341,217.9,340.2,218.3,339.4z"/>
		<path d="M57.1,328.8c-71-65.9-77.7-190.6-1.4-266.2c27.3,27.3,54.6,54.6,82.4,82.4c-14.4,16.6-21.1,36.9-18.2,59.8
			c2.9,22.8,14.5,40.6,33.8,53.9c-0.6,1.8-1.3,3.6-2.1,6.1c-10.7-8-21-15.8-31.5-23.7c-3.4,11.9-6.5,23.2-9.8,34.5
			c-3.2,11.1-6.4,22.3-9.7,33.9c-4.4-1.3-8.5-2.3-12.5-3.8c-3-1.2-4.8-0.7-7.3,1.7C73.2,314.8,65.1,321.7,57.1,328.8z M41.7,212
			c0.2,0.2,0.4,0.3,0.6,0.5c1-0.9,2.2-1.7,3-2.8c3.5-4.4,8.1-5,13-3.7c2.8,0.8,5.7,1.9,8.2,3.4c7.2,4,14.3,8.4,21.5,12.4
			c5.2,2.9,10.9-1.2,11.3-7.2c0.3-4.6,1.8-9.2,2.9-13.8c0.3-1.3,1.5-2.6,1.3-3.7c-2-7.6-0.5-16.1-6.4-22.9c-4.2-4.8-4-5.3-9.4-1.8
			c-2.3,1.5-4.4,3.5-6.7,5.1c-1.8,1.3-3.7,2.3-5.6,3.5c-0.3-0.4-0.6-0.7-1-1.1c2.6-3.2,5.4-6.4,7.9-9.8c1-1.4,2.6-4.1,2.2-4.6
			c-3.6-3.9-7.3-8-11.7-10.9c-2.7-1.8-6.7-1.3-9.9-2.5c-6.1-2.3-11.9-1.6-17.9,0.3c-2,0.6-4.7,0.9-6.5,0.1
			c-5.1-2.2-8.2,0.6-11.4,3.6c-3.3,3.1-0.3,5.9,0.9,8.4c1.5,2.9,3.7,5.5,5.5,8.3c3.8,6,7.7,12,11.2,18.2c3.4,6.2,2.9,12.4-1.3,18.3
			C42.8,210.1,42.3,211.1,41.7,212z"/>
		<path d="M224.5,219c-0.1,0.1-0.4,0.1-0.4,0.2c-5.9,10-15.9,13.8-26.3,17.1c-3.9,1.2-6,0.6-6.3-4c-0.5-7-1.4-14-1.8-21
			c-0.1-2.2,0.8-4.5,1.6-6.6c1.4-3.7,2.9-7.1,0.8-11.3c-1-2.1-0.3-5.2,0.1-7.8c0.4-2.8-0.2-4.6-3.2-5c-2.9-0.5-5.9-0.7-8.7-1.5
			c-2.9-0.9-5.8-2-8.2-3.7c-2.1-1.4-2.8-4.8-6.5-3.8c-0.7,0.2-1.9-1.5-2.4-1.9c4-12.4,10.5-22.2,22.2-25.5c0.7-3.4,1.5-5.7,1.5-8
			c0-1.9-1.1-3.9-1.7-5.8c-0.9,0.5-2.5,0.9-2.6,1.5c-0.5,5.1-4.6,5.5-7.9,5.3c-7.7-0.3-14.6,1.2-20.6,6.3c-0.5,0.4-1,1-1.5,1.3
			c-7.3,4-8,4.5-3.2,15.5c-4.1-1.3-7.1-2.3-10.7-3.4c-0.8,4.3-8.1,7.7-2.6,14.3c2-0.7,4.3-1.2,6.2-2.3c7.6-4.2,14-0.7,20.3,3
			c5.1,3,10.2,6.1,15.5,8.8c5.4,2.7,6.7,4.8,4.3,10.1c-1.7,3.9-2.1,7.5-2.1,11.8c0,3.9-3.8,7.8-5.3,11.9c-2.4,6.3-4.7,12.6-6.3,19.2
			c-0.7,3.1,2.3,3.4,4.8,3c5.5-1,10.9-2,16.4-3c0.8,4.6-1.1,7.5-6.2,10.4c-3.7,2.1-7.6,3.9-11.6,6c7.4,6.7,7.7,6.2,15.5,0.6
			c3.7-2.7,9.1-3.7,13.8-4.5c5.7-0.9,11.6-1.1,17.3-0.6c3.1,0.3,6.2,2.3,8.9,4.1c4.7,3.4,8.4,0.7,12.2-1.5c3.2-1.9,6.4-3.9,9.5-5.8
			c0.5,0.6,1,1.3,1.5,1.9c-3.3,2.9-6.3,6.1-9.8,8.8c-15.6,12.2-33.4,17.3-53.1,15.3c-9.8-1-17-6-22.6-13.8c-2.8-4-5.5-8.1-8.7-11.9
			c-6.4-7.8-9.4-17-12.7-26.2c-1.1-3.2-3.7-5.9-6-8.5c-6-6.9-8.7-14.7-8-23.8c0.3-3.7,0.3-7.2-6-7.1c6.3-23.5,20.1-39.8,41.5-49.6
			c27.1-12.5,60.4-6.2,82,15.2c10.5,10.4,17.6,22.4,19.1,37.4c-5-8.3-9.8-16.5-20.5-21c2.8,3.4,4.9,5.8,6.9,8.3
			c-0.4,0.4-0.7,0.9-1.1,1.3c-1.9-1.1-3.8-2.1-5.9-3.3c2,3.1,4.2,6,5.8,9.1c2.6,4.9,1.3,8.9-3.3,12.3c-1.3,0.9-2.6,2.1-3.3,3.5
			c-2.4,5.1-6.1,8.3-11.2,10.8c-2.3,1.1-3.9,4.2-5.1,6.8c-1.4,2.8-2.1,5.9-3.1,8.9C225.3,217.5,224.9,218.2,224.5,219z M223.5,142.3
			c4.4,4.6,11.9,6.7,14.4,3.6C233.1,144.7,228.7,143.6,223.5,142.3z"/>
		<path d="M224.5,219c0.4-0.7,0.7-1.5,1.1-2.2c2.3-1.2,4.6-2.5,7-3.5c6.8-3.1,11.7-9.8,20.1-10c2.7-0.1,4.1,0.2,3.7,2.8
			c-1.1,7.7-2.1,15.4-4,22.9c-1.4,5.4-5,6.3-10.3,4c-4.9-2.1-9.1-1.3-12.5,2.2c-1,1-2.6,1.6-3.9,2.3c-0.3-1.4-0.7-2.8-1.1-4.5
			c-1.1-0.3-2.4-0.8-4.2-1.3C221.8,227.2,223.1,223.1,224.5,219z"/>
		<path fill="#FFFFFF" d="M141.3,70.5c5.9,0.7,10.1,1.1,16.2,1.8c-3.2,1.9-5.5,3.3-7.7,4.6c0.3,0.1,0.7,0.1,1,0.2
			c6.2-2.1,12.4-4.4,18.7-6.3c3.7-1.2,7.2-2,8.2-6.8c0.4-2.1,2.8-3.8,3.8-5.1c-0.8,0.4-2.5,1.3-4.7,2.4c-3.4-10.4-10.7-18.1-19-25
			c-2.3-1.9-3.6-5.1-5.4-7.6c0.4-0.3,0.9-0.7,1.3-1c0.9,0.8,1.7,1.6,2.6,2.4c2.1,1.9,3.9,4.3,6.4,5.5c9.9,5,19,10.8,25.9,21.6
			c0.9-3.1,2-5,2-6.9c-0.2-4.8-0.7-9.6-1.3-14.3c-0.7-4.7,1.4-7.9,3.6-12c3.6-6.4,10.4-4,14.4-7.8c0.4-0.4,2.2,1,3.4,1.1
			c5.7,0.7,9.5,4.8,14,7.7c1,0.7,1.9,1.7,2.7,2.7c1.1,1.3,2.1,2.6,3,3.9c0.7,1,1.5,1.9,2.1,3c0.8,1.6,1.5,3.3,2.1,5
			c0.4,1,1.2,2.3,0.8,3.1c-1.4,3-1.8,5.7,1.1,8c0.2,0.2,0.5,0.7,0.4,0.9c-4,8.2,1.9,17.9-3.9,25.8c-0.6,0.8-0.9,1.8-1.4,2.6
			c-1.8,3.2-3.7,5.5-8.2,4c-4.3-1.5-8.9-1.9-13.9-2.9c-0.5,1.5-0.7,4.5-2.2,5.7c-1.6,1.3-4.5,0.8-7.4,1.1c-0.7,4.5-4.6,5.6-8.8,7.3
			c-5.2,2.1-10.2,5.3-14.8,8.7c-5,3.7-9.4,4.3-14,0c6.3-4.2,12.4-8.3,18.5-12.4c-12.1-0.5-20.3,3.2-28.7,13
			c-4.3-5-6.8-10.3-5.9-17.2c0.3-2.5-0.9-5.3-1.6-7.9C143.8,76.9,142.7,74.4,141.3,70.5z M208,32.7c-3.8,7.9-7.9,16.5-11.5,23.9
			C203.4,53.6,209.7,40.9,208,32.7z M162.4,83.2c-1.1-1.6-2.1-3.2-3.2-4.8c-1,1.4-2.1,2.8-3.1,4.2c-0.9,1.3-2.1,2.6-2.6,4.1
			c-0.3,0.9,0.5,2.9,1.2,3C157.1,90.4,161.7,86.1,162.4,83.2z M179.8,69.1c-0.4,4-1,7.5,5,8.8C183.6,74.5,186.1,70.1,179.8,69.1z"/>
		<path fill="#FFFFFF" d="M287.1,200.5c-0.3-3.7-1.1-7.5-0.8-11.2c0.3-3.2,1.8-6.4,3.1-9.5c0.9-2.1,2-4.2,3.5-5.9
			c2.5-2.7,5.3-5,8.1-7.3c7.1-6,16-6.7,24.6-8.4c5.9-1.2,24.8,1.9,29.4,5.9c0.9,0.7,1.8,1.7,2.8,2c10.9,2.3,13.7,12.2,15.9,20.2
			c2,7.4,2.3,16.6-2.1,24c-2.2,3.7-6.4,6.6-10.3,8.8c-4.8,2.7-7.9,5.8-8.8,11.6c-0.9,6.3-2.7,6.8-8.9,5.9c-2.9-0.4-6,0.5-9,0.7
			c-2.5,0.2-5.5,1.1-7.6,0.1c-3.9-1.7-7.5-1.9-11.5-0.7c-3.5,1-6.4-0.2-6.6-3.8c-0.7-9.5-6.9-14-14.5-17.7
			C288.4,212.1,287.4,206.4,287.1,200.5z M335.3,162.4c-0.6,16.6-1.2,32.6-1.8,48.6c0.3,0,0.6,0.1,1,0.1c3.2-15.7,6.4-31.4,9.7-47.6
			C340.9,163.1,338.4,162.8,335.3,162.4z M317.5,163.4c3.1,15.9,6.1,31.3,9,46.2c0-15.4,0-31.2,0-47.4
			C323.1,162.7,320.7,163,317.5,163.4z M301.8,170.2c6.2,14.1,12.3,28,18.4,41.9c0.3-0.1,0.6-0.2,0.9-0.3c-4-15.1-7.9-30.1-12-45.6
			C306.3,167.7,304.3,168.8,301.8,170.2z M339.3,212.3c0.3,0.1,0.6,0.2,0.9,0.2c5.6-11.9,11.2-23.8,16.7-35.8
			c3.1-6.7,2.9-6.8-4.6-9.9C348,182.1,343.7,197.2,339.3,212.3z M365,177c-6.7,13-13.3,25.9-19.9,38.8c7.5-8.9,14-18.5,21.1-27.6
			C369.8,183.9,369.3,180.8,365,177z M296.3,176.7c-0.7,0-1.4,0-2,0c-0.5,2.5-2.2,5.9-1.2,7.5c6.4,9.6,13.5,18.8,20.3,28.1
			c0.4-0.2,0.8-0.5,1.2-0.7C308.5,200,302.4,188.4,296.3,176.7z M348.8,218.4c0.4,0.4,0.9,0.8,1.3,1.3c5.8-4.8,11.6-9.7,17.5-14.3
			c4-3.1,4-6.6,2.4-11.6C362.6,202.4,355.7,210.4,348.8,218.4z M291.5,193.3c-0.5,0.2-1,0.3-1.5,0.5c0.2,2.7-0.6,6.4,0.9,7.8
			c6.5,6.2,13.6,11.7,20.4,17.4c0.4-0.4,0.7-0.8,1.1-1.2C305.4,209.7,298.5,201.5,291.5,193.3z M311.7,221.6
			c-1.5,4.1,4.3,10.2,10,10.7C318.2,228.6,315.2,225.3,311.7,221.6z M339.1,232.1c7.9-2.6,11.2-6.5,9.6-10
			C345.3,225.5,342.2,228.8,339.1,232.1z"/>
		<path fill="#FFFFFF" d="M139.9,39.2c4.9,6.3,12,8.4,18.9,11.3c5.6,2.4,10.4,6.9,15.3,10.7c0.8,0.6,1,3.4,0.4,4
			c-2.3,2.1-5,3.7-8.5,6.2C161.9,55.9,146.6,51.3,139.9,39.2z"/>
		<path fill="#FFFFFF" d="M190.4,299.5c2.1-0.7,4.2-1.8,6.3-2.1c6.9-0.7,13-3,17.8-8.4c0.3,0.5,0.6,0.9,0.9,1.4
			c-4.7,3.7-9.4,7.4-14,11.1c4.6,2.9,8.4,2.3,11.2-2.1c2-3.2,4.2-6.4,6-9.7c0.7-1.4,3.2-3.2,0-4.7c1.6-2,3.2-4.1,4.8-6.1
			c0.5,0.3,1,0.6,1.5,0.8c-2.4,6.9-4.7,13.9-7.1,20.8c0.3,0,0.7,0,1,0.1c-1,0.7-2,1.4-3.1,2.1c1.7,1.8,3.4,3.7,5.3,5.4
			c0.9,0.8,3,0.9,3.2,1.6c1.5,5.5,2.6,11.1,3.9,16.7c-0.4,0.2-0.8,0.3-1.2,0.5c-0.5-1.1-1-2.2-1.5-3.2c-0.6,0.2-1.1,0.4-1.7,0.6
			c-0.7,2-1.6,4-2,6.1c-0.1,0.4,2.1,1.2,3.7,2.1c-2.3,2.2-4.8,4.6-7.2,6.9c0.6-2.3,1.8-4.8-2.2-6c-1.8,1.3-3.8,2.8-7.1,5.3
			c3.6,1.4,5.8,2.2,8.1,3.1c-4.3,2.2-8.5,4.6-13,6.4c-1.3,0.5-3.2-0.7-4.8-1.1c2-0.7,4-1.3,5.9-2.3c0.3-0.1-0.4-2.9-0.6-2.9
			c-2.7-0.1-5.4,0.2-9.1,0.4c2.1,2.6,3.1,3.8,4.1,5c-3-0.6-5.9-1.3-8.9-1.6c-1.3-0.1-3.1,0.5-3.8,1.5c-3.8,5-7.4,10.2-10.8,15.5
			c-0.9,1.4-0.4,3.6-1.2,5c-1.2,1.9-3.2,3.4-4.9,5c-0.6-0.4-1.2-0.7-1.9-1.1c2.5-5.9,5.4-11.8,7.5-17.8c1.7-4.9,2.9-10.1,3.6-15.2
			c0.3-2-1.1-4.3-1.5-5.7c1.6-1.2,4.7-2.4,4.7-3.7c0.1-2.9-1.3-5.9-2.1-8.9c-1.9,0.5-3.7,1.1-5.6,1.6c0.6-9.6,5.7-16.9,14.7-21.6
			c-0.7,2.4-0.9,4.8,2.4,4.7c1.2,0,2.3-1.8,3.4-2.7C193.7,301.2,192,300.3,190.4,299.5z M197.1,324.9c0.2-5-2.2-8.8-5.1-7.7
			c-2.8,1.1-6.2,3.7-7,6.3c-0.7,2.4,0.4,6.7,5.3,6.7C194.4,330.2,196.3,328.1,197.1,324.9z M200.7,339c5.7-0.1,9.5-2.8,8.4-6.2
			c-0.7-2.1-3.9-4.1-6.4-4.6c-3.2-0.7-6.7,0.7-6.8,4.7C195.8,336.3,197.7,339,200.7,339z M185.6,341.3c0.5,0.6,1.1,1.9,2.1,2.2
			c2.2,0.7,4.9,2.2,5.9-1.6c0.8-3.1-5.1-9.4-8.2-8.9c-0.6,0.1-1.5,0.5-1.6,1c-1.6,4.8-3,9.5-4.5,14.3c0.5,0.2,0.9,0.4,1.4,0.6
			C182.3,346.4,183.9,343.9,185.6,341.3z M197.1,315.1c3.4,0.1,7.8-3.4,7-6.1c-0.7-2.2-3.3-3.8-5.1-5.6c-2.1,2.2-5.1,4-6.2,6.6
			C191.6,312.7,193.7,315,197.1,315.1z M198.5,320.5c-0.1,4,2.6,6.1,5.6,5.1c2.2-0.6,4.4-3.8,4.9-6.2c0.3-1.4-2.9-4.7-4.7-4.9
			C200.9,314.4,198.6,316.8,198.5,320.5z M213.1,303.2c-2.5,2.9-5.6,4.9-5.5,6.9c0.1,2.2,3,4.3,4.7,6.4c1.7-2.5,3.9-4.8,4.8-7.5
			C217.6,308,215.1,306,213.1,303.2z M209.7,329.2c0.6,0.3,1.3,0.7,1.9,1c2.8-0.8,7.1,1.8,7.8-3.3c0.3-2-1.5-4.4-2.8-6.2
			c-0.6-0.8-3.5-1.2-3.6-1C211.7,322.8,210.7,326,209.7,329.2z M191.4,312.3c-2.7-1.8-5.2-3.8-5.5-3.6c-2,2-3.6,4.3-5,6.7
			c-0.2,0.3,2.5,2.9,2.8,2.7C186.1,316.7,188.2,314.9,191.4,312.3z M219.1,312c0.3,3,0.4,5.4,0.9,7.7c0.1,0.7,1.3,1.4,2.1,1.6
			c0.5,0.1,1.5-0.5,1.9-1.1C225.5,317.8,223.1,313,219.1,312z"/>
		<path d="M217.1,341.8c-2.2-0.9-4.4-1.7-8.1-3.1c3.4-2.5,5.3-4,7.1-5.3c3.9,1.2,2.8,3.7,2.2,6C217.9,340.2,217.5,341,217.1,341.8z"
			/>
		<path d="M190.4,299.5c1.6,0.9,3.3,1.8,4.9,2.6c-1.1,1-2.3,2.7-3.4,2.7c-3.4,0.1-3.1-2.3-2.4-4.7
			C189.8,299.9,190.1,299.7,190.4,299.5z"/>
		<path fill="#FFFFFF" d="M41.7,212c0.6-0.9,1.1-1.9,1.7-2.7c4.2-5.8,4.7-12.1,1.3-18.3c-3.4-6.2-7.4-12.2-11.2-18.2
			c-1.8-2.8-4-5.4-5.5-8.3c-1.3-2.6-4.3-5.3-0.9-8.4c3.2-3,6.3-5.8,11.4-3.6c1.8,0.8,4.5,0.6,6.5-0.1c6-1.9,11.8-2.6,17.9-0.3
			c3.2,1.2,7.2,0.7,9.9,2.5c4.4,2.9,8.1,7,11.7,10.9c0.4,0.5-1.2,3.2-2.2,4.6c-2.5,3.3-5.2,6.5-7.9,9.8c0.3,0.4,0.6,0.7,1,1.1
			c1.9-1.2,3.8-2.2,5.6-3.5c2.3-1.6,4.4-3.5,6.7-5.1c5.4-3.6,5.3-3,9.4,1.8c5.9,6.8,4.4,15.2,6.4,22.9c0.3,1-1,2.4-1.3,3.7
			c-1.1,4.6-2.6,9.1-2.9,13.8c-0.4,6.1-6.1,10.1-11.3,7.2c-7.2-4-14.3-8.4-21.5-12.4c-2.6-1.4-5.4-2.6-8.2-3.4
			c-5-1.3-9.5-0.7-13,3.7c-0.8,1.1-2,1.9-3,2.8C42.1,212.3,41.9,212.2,41.7,212z"/>
		<path fill="#FFFFFF" d="M223.5,142.3c5.2,1.3,9.6,2.4,14.4,3.6C235.4,149,227.9,146.9,223.5,142.3z"/>
		<path d="M208,32.7c1.7,8.2-4.6,20.9-11.5,23.9C200.1,49.2,204.2,40.7,208,32.7z"/>
		<path d="M162.4,83.2c-0.7,2.9-5.3,7.1-7.7,6.5c-0.7-0.2-1.5-2.2-1.2-3c0.4-1.5,1.6-2.8,2.6-4.1c1-1.4,2.1-2.8,3.1-4.2
			C160.2,80,161.3,81.6,162.4,83.2z"/>
		<path d="M179.8,69.1c6.3,1,3.8,5.4,5,8.8C178.9,76.6,179.4,73.1,179.8,69.1z"/>
		<path d="M335.3,162.4c3,0.4,5.6,0.8,8.8,1.2c-3.3,16.2-6.5,31.9-9.7,47.6c-0.3,0-0.6-0.1-1-0.1C334.1,195,334.7,178.9,335.3,162.4
			z"/>
		<path d="M317.5,163.4c3.2-0.4,5.6-0.8,9-1.2c0,16.2,0,32,0,47.4C323.6,194.7,320.6,179.3,317.5,163.4z"/>
		<path d="M301.8,170.2c2.5-1.4,4.5-2.5,7.3-4.1c4.1,15.5,8,30.6,12,45.6c-0.3,0.1-0.6,0.2-0.9,0.3
			C314.1,198.2,308,184.3,301.8,170.2z"/>
		<path d="M339.3,212.3c4.3-15.1,8.6-30.3,13-45.4c7.5,3.1,7.6,3.2,4.6,9.9c-5.5,12-11.1,23.8-16.7,35.8
			C339.9,212.5,339.6,212.4,339.3,212.3z"/>
		<path d="M365,177c4.2,3.8,4.7,6.9,1.3,11.2c-7.1,9.1-13.6,18.6-21.1,27.6C351.8,202.9,358.4,190,365,177z"/>
		<path d="M296.3,176.7c6.1,11.6,12.2,23.3,18.3,34.9c-0.4,0.2-0.8,0.5-1.2,0.7c-6.8-9.3-13.9-18.5-20.3-28.1
			c-1-1.5,0.7-4.9,1.2-7.5C295,176.7,295.6,176.7,296.3,176.7z"/>
		<path d="M348.8,218.4c6.9-8,13.8-16.1,21.2-24.7c1.7,5.1,1.6,8.6-2.4,11.6c-6,4.6-11.7,9.5-17.5,14.3
			C349.6,219.3,349.2,218.8,348.8,218.4z"/>
		<path d="M291.5,193.3c7,8.2,13.9,16.4,20.9,24.5c-0.4,0.4-0.7,0.8-1.1,1.2c-6.9-5.7-14-11.2-20.4-17.4c-1.5-1.4-0.7-5.2-0.9-7.8
			C290.5,193.6,291,193.5,291.5,193.3z"/>
		<path d="M311.7,221.6c3.4,3.7,6.5,7,10,10.7C316,231.7,310.3,225.6,311.7,221.6z"/>
		<path d="M339.1,232.1c3.1-3.3,6.3-6.6,9.6-10C350.3,225.6,346.9,229.5,339.1,232.1z"/>
		<path d="M197.1,324.9c-0.9,3.2-2.7,5.3-6.8,5.3c-4.9,0-6-4.3-5.3-6.7c0.8-2.6,4.1-5.3,7-6.3C194.9,316.1,197.3,320,197.1,324.9z"
			/>
		<path d="M200.7,339c-3,0-4.9-2.7-4.8-6c0.1-4,3.7-5.4,6.8-4.7c2.4,0.5,5.7,2.5,6.4,4.6C210.2,336.2,206.4,338.9,200.7,339z"/>
		<path d="M185.6,341.3c-1.7,2.6-3.4,5.1-5,7.6c-0.5-0.2-0.9-0.4-1.4-0.6c1.5-4.8,3-9.6,4.5-14.3c0.2-0.5,1-0.9,1.6-1
			c3.1-0.5,9,5.9,8.2,8.9c-1,3.8-3.7,2.3-5.9,1.6C186.7,343.2,186.1,341.8,185.6,341.3z"/>
		<path d="M197.1,315.1c-3.4-0.1-5.4-2.4-4.3-5.1c1.1-2.6,4.1-4.4,6.2-6.6c1.8,1.9,4.5,3.4,5.1,5.6
			C204.9,311.7,200.5,315.1,197.1,315.1z"/>
		<path d="M198.5,320.5c0.1-3.7,2.4-6.2,5.7-5.9c1.8,0.2,5,3.5,4.7,4.9c-0.4,2.4-2.7,5.5-4.9,6.2
			C201.1,326.6,198.4,324.5,198.5,320.5z"/>
		<path d="M213.1,303.2c2,2.7,4.4,4.8,4.1,5.8c-0.9,2.7-3.1,5-4.8,7.5c-1.7-2.1-4.7-4.2-4.7-6.4
			C207.5,308.2,210.7,306.1,213.1,303.2z"/>
		<path d="M209.7,329.2c1-3.2,2-6.4,3.3-9.5c0.1-0.2,3,0.2,3.6,1c1.3,1.8,3.1,4.3,2.8,6.2c-0.7,5.1-5,2.4-7.8,3.3
			C210.9,329.9,210.3,329.5,209.7,329.2z"/>
		<path d="M191.4,312.3c-3.2,2.6-5.3,4.4-7.6,5.8c-0.3,0.2-3-2.4-2.8-2.7c1.4-2.4,3-4.7,5-6.7C186.2,308.5,188.7,310.5,191.4,312.3z
			"/>
		<path d="M199.5,347.2c-1-1.2-2-2.4-4.1-5c3.8-0.2,6.5-0.4,9.1-0.4c0.3,0,0.9,2.8,0.6,2.9c-1.9,1-3.9,1.6-5.9,2.3
			C199.3,347,199.5,347.2,199.5,347.2z"/>
		<path d="M219.1,312c4,1,6.4,5.8,4.9,8.2c-0.4,0.6-1.4,1.2-1.9,1.1c-0.8-0.2-2-1-2.1-1.6C219.5,317.3,219.4,314.9,219.1,312z"/>
	</g>
</g>
</svg>
