<?xml version="1.0" encoding="utf-8"?>
<svg version="1.1" xmlns="http://www.w3.org/2000/svg" x="0px" y="0px" viewBox="0 0 372.79 53.23" style="fill:#0080a0;fill-opacity:1;fill-rule:nonzero;stroke:none">
<g>
	<rect y="0.63" width="13.89" height="51.97"/>
	<polygon points="49.39,24.69 35.36,0.63 20.77,0.63 20.77,52.6 33.96,52.6 33.96,25.6 34.17,25.6 50.09,52.6 62.85,52.6 
		62.85,0.63 49.6,0.63 49.6,24.69 	"/>
	<path d="M69.78,0.63V52.6h17.46c16.48,0,24.26-4.14,24.26-26.02c0-21.46-7.92-25.95-24.47-25.95H69.78z M97.41,26.65
		c0,13.12-3.72,13.95-8.91,13.95h-4.84V13.26h4.28C93.83,13.26,97.41,13.61,97.41,26.65z"/>
	<rect x="116.48" y="0.63" width="13.88" height="51.97"/>
	<path d="M245.09,0c-19.35,0-22.79,12.69-22.79,26.65c0,13.89,3.44,26.58,22.79,26.58c19.29,0,22.72-12.69,22.72-26.58
		C267.81,12.69,264.44,0,245.09,0z M245.09,40.96c-7.64,0-8.7-5.26-8.7-13.81c0-8.49,1.05-13.75,8.7-13.75
		c7.58,0,8.63,5.26,8.63,13.75C253.71,35.69,252.66,40.96,245.09,40.96z"/>
	<path d="M342.42,0c-19.36,0-22.8,12.69-22.8,26.65c0,13.89,3.44,26.58,22.8,26.58c19.28,0,22.72-12.69,22.72-26.58
		C365.14,12.69,361.78,0,342.42,0z M342.42,40.96c-7.64,0-8.7-5.26-8.7-13.81c0-8.49,1.05-13.75,8.7-13.75
		c7.57,0,8.62,5.26,8.62,13.75C351.05,35.69,349.99,40.96,342.42,40.96z"/>
	<path d="M369.62,44.38c-2.53,0-3.15,1.71-3.15,3.95c0,2.23,0.62,3.93,3.15,3.93c2.52,0,3.17-1.7,3.17-3.93
		C372.79,46.09,372.14,44.38,369.62,44.38z M369.62,51.7c-2.07,0-2.55-1.46-2.55-3.37c0-1.92,0.48-3.38,2.55-3.38
		c2.08,0,2.56,1.46,2.56,3.38C372.18,50.24,371.7,51.7,369.62,51.7z"/>
	<path d="M371.37,47.44c0-0.94-0.31-1.48-1.53-1.48h-1.8v4.7h0.96v-1.66h0.61l0.73,1.66h0.99l-0.79-1.75
		C371.18,48.69,371.37,48.17,371.37,47.44z M369.8,48.21h-0.79v-1.42h0.79c0.47,0,0.62,0.2,0.62,0.71
		C370.42,48.02,370.27,48.21,369.8,48.21z"/>
	<path d="M195.67,32.54h8.96v0.91c0,5.74,0.18,8.28-6.66,8.28c-6.38,0-8.56-2.95-8.56-14.66c0-12.2,3.65-13.68,9.12-13.68
		c4.06,0,6.94,1.05,9.33,2.39l7.43-11.57C211.36,1.68,205.61,0,199.16,0c-17.95,0-23.7,8.63-23.7,26.65
		c0,15.71,4.21,26.58,21.25,26.58c3.02,0,5.61-0.21,7.85-0.63h12.77V30.86v-9.61H197.2L195.67,32.54z"/>
	<path d="M293,32.54h8.96v0.91c0,5.74,0.18,8.28-6.66,8.28c-6.38,0-8.56-2.95-8.56-14.66c0-12.2,3.65-13.68,9.12-13.68
		c4.06,0,6.94,1.05,9.33,2.39l7.43-11.57C308.69,1.68,302.94,0,296.49,0c-17.95,0-23.7,8.63-23.7,26.65
		c0,15.71,4.21,26.58,21.25,26.58c3.02,0,5.61-0.21,7.85-0.63h12.77V30.86v-9.61h-20.12L293,32.54z"/>
	<polygon points="171.8,13.32 171.8,0.63 137.29,0.63 137.29,52.6 171.8,52.6 171.8,40.26 150.9,40.26 150.9,32.47 164.63,32.47 
		166.3,20.13 150.9,20.13 150.9,13.32 	"/>
</g>
</svg>
