<?xml version="1.0" encoding="utf-8"?>
<!-- Generator: Adobe Illustrator 22.1.0, SVG Export Plug-In . SVG Version: 6.00 Build 0)  -->
<svg version="1.2" baseProfile="tiny" id="Layer_1" xmlns="http://www.w3.org/2000/svg" xmlns:xlink="http://www.w3.org/1999/xlink"
	 x="0px" y="0px" viewBox="0 0 313 50.8" fill="#ffffff">
<g>
	<path d="M46.8,12.5c0,2.8-0.6,5.2-1.7,7.3c-1.2,2-2.8,3.7-4.8,4.9c-2.1,1.3-4.5,2.3-7.2,2.8c-2.7,0.6-5.7,0.9-9.1,0.9h-4.1v15
		c0,0.8,0.2,1.6,0.5,2.2c0.3,0.6,0.9,1.1,1.8,1.5c0.5,0.2,1.2,0.4,2.3,0.6s1.9,0.4,2.7,0.4v1.7H0v-1.7c0.7-0.1,1.6-0.2,2.7-0.3
		c1.1-0.1,1.9-0.3,2.4-0.5C6,47,6.6,46.5,6.9,46c0.3-0.5,0.4-1.3,0.4-2.2V7.6c0-0.8-0.1-1.5-0.4-2.1S6,4.3,5.1,3.9
		C4.4,3.7,3.5,3.4,2.4,3.2C1.4,3,0.5,2.8,0,2.7V0h27.5C34,0,38.8,1,42,3.1C45.2,5.1,46.8,8.3,46.8,12.5z M33,14.3
		c0-3.7-0.8-6.5-2.3-8.3c-1.5-1.8-4.2-2.7-8.1-2.7h-2.9v21.9h1.5c3.8,0,6.8-0.9,8.8-2.7C32,20.7,33,18,33,14.3z"/>
	<path d="M92.2,49.9H73.3V48c0.4,0,1-0.1,1.8-0.1c0.8-0.1,1.3-0.2,1.6-0.3c0.6-0.2,1-0.6,1.3-1s0.3-0.9,0.3-1.5V33H63.4v11.8
		c0,0.6,0.1,1.1,0.4,1.5c0.2,0.4,0.6,0.8,1.2,1c0.3,0.1,0.8,0.3,1.6,0.4c0.8,0.1,1.4,0.2,1.8,0.3v1.9H49.5V48c0.4,0,1-0.1,1.8-0.2
		c0.8-0.1,1.4-0.2,1.7-0.3c0.6-0.2,1-0.5,1.2-1c0.2-0.4,0.3-0.9,0.3-1.5V20.3c0-0.6-0.1-1.1-0.3-1.5c-0.2-0.4-0.6-0.7-1.3-1
		c-0.5-0.2-1.1-0.4-1.9-0.6c-0.8-0.2-1.3-0.3-1.7-0.3V15h18.9v1.9c-0.5,0-1.1,0.1-1.8,0.2c-0.7,0.1-1.2,0.3-1.6,0.4
		c-0.6,0.2-1.1,0.6-1.3,1c-0.2,0.5-0.3,1-0.3,1.5v10.4h14.9V20.3c0-0.6-0.1-1.1-0.3-1.5c-0.2-0.4-0.6-0.7-1.3-1
		c-0.4-0.2-1-0.4-1.7-0.6c-0.7-0.2-1.3-0.3-1.7-0.3V15h18.9v1.9c-0.5,0-1.1,0.1-1.8,0.2c-0.7,0.1-1.2,0.2-1.8,0.4
		c-0.6,0.2-1,0.5-1.3,1c-0.2,0.5-0.3,1-0.3,1.5v24.7c0,0.6,0.1,1.1,0.3,1.5s0.6,0.8,1.3,1c0.4,0.2,1,0.3,1.7,0.4
		c0.7,0.1,1.4,0.2,1.8,0.2V49.9z"/>
	<path d="M133.6,16.9c-0.6,0.1-1.1,0.2-1.6,0.3c-0.5,0.1-1,0.4-1.4,0.6c-0.7,0.4-1.3,0.9-1.9,1.5s-1.1,1.3-1.6,2.1
		c-1.1,1.6-2.2,3.3-3.4,5.1c-1.2,1.8-2.4,3.8-3.8,6c-0.9,1.4-1.5,2.5-1.7,3.2c-0.2,0.7-0.3,2-0.3,3.9v4.9c0,0.6,0.1,1.1,0.3,1.5
		c0.2,0.4,0.6,0.8,1.3,1.1c0.3,0.1,0.9,0.3,1.8,0.5c0.9,0.2,1.6,0.3,2,0.3v1.9h-19.5V48c0.5,0,1.1-0.1,2-0.2s1.5-0.2,1.8-0.3
		c0.6-0.3,1-0.6,1.2-1c0.2-0.4,0.3-1,0.3-1.6v-6.2c0-0.5,0-1,0-1.4c0-0.4-0.1-0.8-0.2-1c-0.1-0.3-0.3-0.7-0.6-1.2
		c-0.3-0.5-0.6-1.1-1.1-1.9c-1.3-2.2-2.5-4.3-3.7-6.3c-1.2-2-2.3-3.8-3.4-5.6c-0.6-0.9-1.1-1.6-1.7-2.2c-0.6-0.5-1.1-1-1.7-1.3
		c-0.4-0.2-1-0.4-1.6-0.6c-0.6-0.1-1.2-0.2-1.7-0.2V15h20v1.9c-1.8,0-3.1,0.2-3.7,0.4c-0.6,0.2-1,0.5-1,0.8c0,0.2,0.1,0.5,0.4,1.1
		s0.7,1.4,1.3,2.5c0.6,1.1,1.4,2.5,2.4,4.4s2.4,4.1,3.9,6.6c3.1-4.9,5.2-8.4,6.4-10.3c1.2-2,1.7-3.2,1.7-3.6c0-0.6-0.3-1-1-1.3
		c-0.7-0.3-1.8-0.5-3.3-0.6V15h12.9V16.9z"/>
	<path d="M167.7,38.7l-0.7,11.2h-32.2V48c0.6,0,1.2-0.1,2-0.2c0.8-0.1,1.3-0.2,1.5-0.3c0.6-0.2,1-0.5,1.2-1c0.2-0.4,0.3-0.9,0.3-1.6
		V20.3c0-0.6-0.1-1.1-0.3-1.5s-0.6-0.7-1.3-1c-0.5-0.2-1.1-0.4-1.8-0.6s-1.3-0.2-1.7-0.3V15h19.2v1.9c-0.5,0-1.1,0.1-1.9,0.2
		c-0.7,0.1-1.3,0.2-1.9,0.4c-0.6,0.2-1.1,0.5-1.3,1c-0.2,0.5-0.3,1-0.3,1.5v23c0,1.1,0.1,1.9,0.2,2.6c0.1,0.6,0.4,1.1,0.9,1.4
		c0.4,0.3,1,0.5,1.8,0.6c0.8,0.1,1.8,0.1,3.2,0.1c1.3,0,2.6-0.1,3.8-0.2c1.2-0.2,2.1-0.5,2.7-1c0.8-0.8,1.7-2,2.6-3.5
		c0.9-1.5,1.6-2.9,2.1-4.2H167.7z"/>
	<path d="M201.7,18.9c1.7,1.6,3.1,3.5,4.1,5.7c1,2.2,1.5,4.8,1.5,7.6c0,2.5-0.4,5-1.3,7.3c-0.9,2.3-2.1,4.3-3.7,5.9
		c-1.7,1.7-3.7,3.1-6,4c-2.3,1-5,1.4-8.1,1.4c-2.5,0-4.9-0.4-7.2-1.3s-4.3-2.1-6-3.6c-1.7-1.6-3.1-3.5-4.1-5.7s-1.5-4.7-1.5-7.5
		c0-2.9,0.5-5.4,1.5-7.8c1-2.3,2.3-4.3,4-6c1.7-1.6,3.7-2.9,6-3.8c2.3-0.9,4.8-1.3,7.4-1.3c2.6,0,5.1,0.4,7.3,1.3
		C198.1,16.1,200,17.3,201.7,18.9z M195.4,43.9c0.7-1.5,1.3-3.2,1.6-5.1c0.3-1.9,0.5-4,0.5-6.4c0-2-0.1-4-0.4-5.9
		c-0.3-1.9-0.8-3.6-1.5-5.1c-0.7-1.5-1.6-2.7-2.8-3.6c-1.2-0.9-2.6-1.4-4.4-1.4c-3,0-5.2,1.4-6.8,4.2s-2.3,6.8-2.3,11.9
		c0,2.2,0.2,4.2,0.5,6.2c0.3,1.9,0.9,3.6,1.6,5.1c0.7,1.5,1.7,2.6,2.8,3.4c1.1,0.8,2.5,1.2,4.2,1.2c1.6,0,3-0.4,4.2-1.2
		S194.7,45.3,195.4,43.9z"/>
	<path d="M276.9,49.9h-19.4V48c0.4,0,1.1-0.1,2-0.1c0.9-0.1,1.5-0.2,1.8-0.3c0.6-0.2,1-0.6,1.2-1c0.2-0.4,0.3-0.9,0.3-1.5V20.3
		c0-0.6-0.1-1-0.3-1.5c-0.2-0.4-0.6-0.8-1.3-1c-0.4-0.2-1-0.3-1.7-0.5c-0.8-0.2-1.4-0.3-2-0.4V15h19.4v1.9c-0.5,0-1.1,0.1-1.8,0.2
		c-0.7,0.1-1.4,0.2-1.9,0.4c-0.6,0.2-1.1,0.5-1.3,1c-0.2,0.5-0.3,1-0.3,1.5v24.7c0,0.6,0.1,1.1,0.3,1.5c0.2,0.4,0.6,0.8,1.3,1
		c0.3,0.1,0.9,0.3,1.7,0.4c0.8,0.1,1.5,0.2,2,0.3V49.9z"/>
	<path d="M297.6,50.8c-2.6,0-5-0.4-7.2-1.2c-2.2-0.8-4.2-2-5.8-3.6c-1.6-1.5-2.9-3.5-3.8-5.7c-0.9-2.3-1.4-4.8-1.4-7.5
		c0-2.7,0.5-5.2,1.4-7.5s2.3-4.3,4-6c1.7-1.7,3.7-2.9,6-3.9c2.3-0.9,4.9-1.4,7.5-1.4c1.9,0,3.7,0.2,5.3,0.7c1.6,0.5,2.9,1,4,1.6
		l1.5-1.4h2.1l0.2,12.7h-2.2c-1.2-3.9-2.7-6.8-4.4-8.6c-1.7-1.8-3.8-2.7-6.3-2.7c-3.1,0-5.4,1.4-7,4.1c-1.6,2.7-2.4,6.5-2.4,11.4
		c0,2.8,0.3,5.1,0.8,7.1s1.3,3.5,2.2,4.7c1,1.2,2.1,2.2,3.4,2.7c1.3,0.6,2.7,0.9,4.3,0.9c2.3,0,4.3-0.6,6.1-1.9
		c1.8-1.2,3.4-3.1,4.9-5.7l2.1,1.3c-0.7,1.4-1.5,2.7-2.4,3.9c-0.9,1.1-1.9,2.1-3.1,2.9c-1.3,0.9-2.7,1.6-4.3,2.1
		C301.6,50.6,299.7,50.8,297.6,50.8z"/>
	<path d="M254.8,12.5c0,2.8-0.6,5.2-1.7,7.3c-1.2,2-2.8,3.7-4.8,4.9c-2.1,1.3-4.5,2.3-7.2,2.8c-2.7,0.6-5.7,0.9-9.1,0.9h-4.1v15
		c0,0.8,0.2,1.6,0.5,2.2c0.3,0.6,0.9,1.1,1.8,1.5c0.5,0.2,1.2,0.4,2.3,0.6s1.9,0.4,2.7,0.4v1.7h-27v-1.7c0.7-0.1,1.6-0.2,2.7-0.3
		c1.1-0.1,1.9-0.3,2.4-0.5c0.9-0.4,1.5-0.8,1.8-1.4c0.3-0.5,0.4-1.3,0.4-2.2V7.6c0-0.8-0.1-1.5-0.4-2.1s-0.9-1.1-1.8-1.5
		c-0.7-0.3-1.5-0.5-2.6-0.8c-1.1-0.2-1.9-0.4-2.4-0.4V0h27.5c6.4,0,11.3,1,14.4,3.1C253.2,5.1,254.8,8.3,254.8,12.5z M241,14.3
		c0-3.7-0.8-6.5-2.3-8.3c-1.5-1.8-4.2-2.7-8.1-2.7h-2.9v21.9h1.5c3.8,0,6.8-0.9,8.8-2.7C240,20.7,241,18,241,14.3z"/>
</g>
</svg>
