<?xml version="1.0" encoding="utf-8"?>
<svg version="1.1" xmlns="http://www.w3.org/2000/svg" x="0px" y="0px"
	 viewBox="0 0 369.28 20.3" style="fill:#0080a0;fill-opacity:1;fill-rule:nonzero;stroke:none">
<g>
	<path d="M0,5.24l1.3-4.68L1.88,0.6l0.46,0.04c0.39,0,1.05-0.01,1.99-0.04c0.94-0.03,1.56-0.04,1.85-0.04H7.5l2.02-0.09l0.9-0.07
		c0.43,0,0.88,0,1.37,0c0.49,0,1,0,1.55,0l1.92,0.16l-1.87,4.82l-0.81-0.14l0.05-0.46c0.03-0.35,0.05-0.65,0.05-0.92
		c0-0.68-0.11-1.21-0.33-1.6c-0.22-0.39-0.52-0.65-0.89-0.79c-0.37-0.14-0.7-0.21-0.98-0.21c-0.41,0-0.74,0.13-0.98,0.38
		C9.26,1.89,9.14,2.22,9.14,2.62v0.64V3.6v7.41v1.38c0,0.72,0.15,1.24,0.45,1.55c0.3,0.31,0.84,0.47,1.61,0.47h0.28v0.78
		c-0.44,0-1.17-0.01-2.18-0.04s-1.55-0.04-1.62-0.04L3.64,15.2v-0.78h0.12h0.42c0.6,0,1.04-0.16,1.29-0.48
		c0.26-0.32,0.38-0.86,0.38-1.62v-1.2V3.34V3.02V2.48c0-0.65-0.32-0.98-0.95-0.98c-0.16,0-0.42,0.05-0.78,0.15
		c-0.36,0.1-0.69,0.27-1,0.51C2.83,2.4,2.48,2.8,2.09,3.36l-0.89,1.3L0.73,5.38L0,5.24z"/>
	<path d="M15.12,1.12V0.48c0.67,0,1.23-0.02,1.69-0.06c0.46-0.04,1.57-0.18,3.33-0.42l-0.06,0.68v0.98l-0.1,1.72v0.26v2.62v0.46
		L19.9,7.18l0.12-0.16l0.12-0.14c0.29-0.33,0.64-0.65,1.04-0.96l0.48-0.32c0.65-0.39,1.31-0.58,1.96-0.58
		c0.61,0,1.14,0.18,1.59,0.53c0.45,0.35,0.72,0.77,0.81,1.24c0.09,0.47,0.14,0.84,0.14,1.11v1.08v0.4v2.14v0.8
		c0,0.76,0.27,1.14,0.8,1.14c0.12,0,0.21-0.01,0.28-0.02l0.24-0.04l0.2-0.08l0.16-0.06L28,13.2l0.14-0.06l0.3,0.64l-0.28,0.16
		l-0.2,0.12L27.7,14.2l-0.78,0.4l-0.2,0.11l-0.88,0.41c-0.35,0.2-0.67,0.3-0.98,0.3c-0.4,0-0.91-0.21-1.54-0.64l-0.26-0.18l0.06-1
		l0.1-1.84v-0.18V9.82V9.38v-0.3V8.86c0-0.44-0.03-0.75-0.08-0.92c-0.16-0.76-0.56-1.14-1.21-1.14c-0.23,0-0.46,0.06-0.69,0.17
		s-0.43,0.24-0.57,0.37l-0.1,0.08l-0.32,0.26L19.98,7.9v3.68v0.74v0.38l0.1,0.38c0.09,0.48,0.25,0.82,0.48,1
		c0.22,0.18,0.65,0.31,1.27,0.39h0.16v0.7l-1.64-0.06c-0.84,0-1.69,0.01-2.54,0.02c-0.85,0.01-1.7,0.03-2.54,0.04v-0.7h0.24
		c0.62-0.07,1.04-0.26,1.27-0.57c0.23-0.31,0.34-0.93,0.34-1.84v-0.44V3.61V2.55c0-0.47-0.11-0.81-0.32-1.02
		c-0.22-0.21-0.59-0.35-1.11-0.4h-0.42H15.12z"/>
	<path d="M39.06,9.92H32.4l0.02,0.58c0.16,1.01,0.53,1.79,1.11,2.36c0.58,0.56,1.31,0.85,2.18,0.85c0.86,0,1.79-0.28,2.81-0.84
		l0.4-0.26l0.5,0.7l-1.34,0.91c-0.49,0.3-0.88,0.53-1.17,0.68s-0.58,0.28-0.89,0.4c-0.31,0.12-0.61,0.21-0.92,0.26
		c-0.31,0.05-0.62,0.08-0.94,0.08c-1.39,0-2.56-0.5-3.51-1.51c-0.95-1.01-1.43-2.26-1.43-3.77c0-1.03,0.24-1.95,0.73-2.77
		c0.49-0.82,1.16-1.47,2.01-1.94c0.85-0.47,1.74-0.71,2.66-0.71c1.03,0,1.94,0.29,2.73,0.87c0.79,0.58,1.26,1.14,1.39,1.68
		s0.22,0.9,0.26,1.09C39.04,8.76,39.06,8.9,39.06,9c0,0.12,0,0.29,0,0.51C39.06,9.73,39.06,9.87,39.06,9.92z M32.42,8.96h3.72V8.54
		c0-0.34-0.01-0.59-0.03-0.75s-0.09-0.44-0.21-0.82c-0.12-0.38-0.32-0.67-0.6-0.9s-0.58-0.33-0.92-0.33c-0.34,0-0.68,0.13-0.99,0.39
		s-0.56,0.59-0.73,0.98c-0.17,0.39-0.25,0.87-0.25,1.43V8.96z"/>
	<path d="M45.94,13.44l0.34-0.86l0.32-0.84l0.42-1.1l0.42-1.08l0.74,0.3l0.02,0.6c0,0.68,0.09,1.25,0.28,1.71
		c0.19,0.46,0.49,0.89,0.92,1.29l0.52,0.42c0.71,0.45,1.47,0.68,2.28,0.68c0.36,0,0.73-0.06,1.12-0.18c0.39-0.12,0.72-0.36,1-0.72
		c0.28-0.36,0.42-0.76,0.42-1.2c0-0.44-0.1-0.78-0.29-1.03c-0.19-0.25-0.39-0.46-0.59-0.63s-0.47-0.39-0.82-0.65
		c-0.35-0.26-0.91-0.63-1.7-1.11L50,8.22l-0.18-0.1l-0.5-0.36c-0.8-0.6-1.35-1.14-1.66-1.62S47.2,5.09,47.2,4.42
		c0-1.21,0.46-2.22,1.37-3.02c0.91-0.8,2.2-1.2,3.85-1.2c0.64,0,1.32,0.07,2.04,0.2c0.72,0.13,1.49,0.35,2.32,0.64l0.94,0.36
		L57.4,2.38c-0.29,0.97-0.57,1.97-0.84,3l-0.9-0.14l-0.02-0.26c-0.11-0.93-0.34-1.68-0.69-2.23c-0.35-0.55-0.76-0.93-1.21-1.13
		c-0.45-0.2-0.79-0.32-1-0.35c-0.21-0.03-0.44-0.05-0.68-0.05c-0.31,0-0.61,0.04-0.92,0.13c-0.31,0.09-0.57,0.27-0.8,0.55
		C50.11,2.18,50,2.51,50,2.88c0,0.33,0.1,0.65,0.29,0.94c0.19,0.29,0.39,0.53,0.6,0.71c0.21,0.18,0.59,0.46,1.15,0.83l1.04,0.7
		l0.18,0.12l0.8,0.52l0.52,0.32c0.57,0.35,1.03,0.65,1.37,0.9c0.34,0.25,0.65,0.53,0.92,0.83c0.27,0.3,0.5,0.69,0.69,1.16
		c0.19,0.47,0.28,0.96,0.28,1.45c0,0.72-0.19,1.39-0.56,2.01c-0.37,0.62-0.91,1.12-1.62,1.49c-0.71,0.37-1.65,0.62-2.84,0.74H52.2
		h-0.24c-0.56,0-1.1-0.05-1.62-0.14l-0.78-0.16C48.12,14.89,46.91,14.27,45.94,13.44z"/>
	<path d="M59.42,10.8c-0.01-0.16-0.02-0.3-0.03-0.42c-0.01-0.12-0.01-0.22-0.01-0.3c0-1.48,0.47-2.7,1.41-3.67
		c0.94-0.97,2.2-1.45,3.77-1.45c0.84,0,1.55,0.07,2.13,0.22c0.58,0.15,1.15,0.44,1.72,0.87c0.57,0.43,1.03,1,1.39,1.69
		c0.36,0.69,0.54,1.45,0.54,2.26c0,1.65-0.55,2.99-1.65,4.01s-2.54,1.53-4.31,1.53c-1.41,0-2.55-0.43-3.42-1.28
		C60.09,13.41,59.58,12.25,59.42,10.8z M62.64,8.86c0,0.39,0.04,0.89,0.12,1.5c0.08,0.61,0.16,1.09,0.23,1.43
		c0.07,0.34,0.19,0.72,0.35,1.15c0.16,0.43,0.33,0.75,0.52,0.98s0.4,0.4,0.63,0.51c0.23,0.11,0.47,0.17,0.71,0.17
		c0.44,0,0.8-0.14,1.07-0.43c0.27-0.29,0.47-0.62,0.58-1.01s0.17-0.89,0.17-1.5c0-0.37-0.04-0.98-0.13-1.83
		c-0.09-0.85-0.24-1.56-0.47-2.14c-0.23-0.58-0.53-1.04-0.9-1.37c-0.33-0.27-0.67-0.4-1.02-0.4c-0.61,0-1.04,0.21-1.28,0.63
		c-0.24,0.42-0.4,0.8-0.47,1.13C62.68,8.01,62.64,8.41,62.64,8.86z"/>
	<path d="M81.3,5.94l-0.2,0.78L80.9,7.5l-0.4,1.78L79.64,9.2c-0.04-0.36-0.13-0.77-0.27-1.22c-0.14-0.45-0.39-0.86-0.75-1.22
		s-0.7-0.56-1.01-0.61C77.3,6.1,77.1,6.08,77.02,6.08c-0.64,0-1.17,0.25-1.59,0.75c-0.42,0.5-0.63,1.17-0.63,2.02
		c0,0.28,0.03,0.59,0.08,0.92c0.05,0.33,0.2,0.75,0.45,1.24s0.65,1.04,1.2,1.63c0.55,0.6,1.32,0.89,2.29,0.89
		c0.73,0,1.55-0.25,2.44-0.74l0.3-0.18l0.5,0.74l-0.3,0.2l-0.5,0.34l-0.78,0.5c-0.69,0.43-1.32,0.74-1.89,0.93
		c-0.57,0.19-1.1,0.29-1.61,0.29c-0.17,0-0.31,0-0.4,0c-1.35,0-2.44-0.45-3.27-1.35s-1.25-2.04-1.25-3.42c0-0.28,0.01-0.5,0.02-0.66
		s0.08-0.54,0.2-1.12s0.45-1.23,0.98-1.91c0.53-0.68,1.2-1.21,1.99-1.59S76.89,5,77.78,5c0.49,0,1.04,0.06,1.65,0.19
		C80.04,5.32,80.66,5.57,81.3,5.94z"/>
	<path d="M82.42,6.34V5.7c0.57,0,1.22-0.04,1.94-0.13c0.72-0.09,1.7-0.27,2.92-0.55l-0.02,0.85v0.85V8.6v3.2v0.87v0.24
		c0,0.54,0.13,0.93,0.4,1.17c0.26,0.24,0.72,0.4,1.37,0.46h0.2v0.66h-6.8v-0.66h0.24c0.61,0,1.05-0.17,1.33-0.51
		c0.27-0.34,0.41-0.92,0.41-1.72v-0.46V9V7.89c0-0.52-0.1-0.9-0.3-1.13c-0.2-0.23-0.57-0.37-1.11-0.42h-0.44H82.42z M84.2,2.3
		c0-0.51,0.09-0.91,0.27-1.2c0.18-0.29,0.38-0.5,0.6-0.62c0.22-0.12,0.46-0.18,0.71-0.18c0.48,0,0.87,0.19,1.17,0.56
		c0.3,0.37,0.45,0.83,0.45,1.36c0,0.52-0.15,0.96-0.44,1.33c-0.29,0.37-0.69,0.55-1.18,0.55c-0.44,0-0.77-0.13-0.99-0.39
		c-0.22-0.26-0.37-0.5-0.46-0.71C84.24,2.79,84.2,2.55,84.2,2.3z"/>
	<path d="M100.14,9.92h-6.66l0.02,0.58c0.16,1.01,0.53,1.79,1.11,2.36c0.58,0.56,1.31,0.85,2.18,0.85c0.86,0,1.79-0.28,2.81-0.84
		l0.4-0.26l0.5,0.7l-1.34,0.91c-0.49,0.3-0.88,0.53-1.17,0.68s-0.58,0.28-0.89,0.4c-0.31,0.12-0.61,0.21-0.92,0.26
		c-0.31,0.05-0.62,0.08-0.94,0.08c-1.39,0-2.56-0.5-3.51-1.51c-0.95-1.01-1.43-2.26-1.43-3.77c0-1.03,0.24-1.95,0.73-2.77
		c0.49-0.82,1.16-1.47,2.01-1.94c0.85-0.47,1.74-0.71,2.66-0.71c1.03,0,1.94,0.29,2.73,0.87c0.79,0.58,1.26,1.14,1.39,1.68
		s0.22,0.9,0.26,1.09c0.04,0.19,0.06,0.34,0.06,0.43c0,0.12,0,0.29,0,0.51C100.14,9.73,100.14,9.87,100.14,9.92z M93.5,8.96h3.72
		V8.54c0-0.34-0.01-0.59-0.03-0.75s-0.09-0.44-0.21-0.82c-0.12-0.38-0.32-0.67-0.6-0.9s-0.58-0.33-0.92-0.33
		c-0.34,0-0.68,0.13-0.99,0.39s-0.56,0.59-0.73,0.98C93.58,7.5,93.5,7.97,93.5,8.54V8.96z"/>
	<path d="M101.86,6.34V5.5l0.32-0.04c1.09-0.13,1.85-0.49,2.28-1.07s0.75-1.19,0.96-1.82l0.14-0.42l0.08-0.28h0.64l-0.02,0.92
		l-0.04,0.92v0.84l-0.06,0.84h3.04v0.96h-3.04v4.4v1.18c0,0.63,0.1,1.08,0.31,1.37c0.21,0.29,0.53,0.43,0.97,0.43
		c0.16,0,0.33-0.02,0.52-0.06s0.35-0.08,0.48-0.13s0.34-0.14,0.62-0.27l0.18-0.1l0.06-0.02l0.4,0.7l-0.22,0.12l-0.1,0.04l-0.62,0.34
		l-0.4,0.24c-0.15,0.09-0.51,0.26-1.1,0.5c-0.58,0.24-1.11,0.36-1.57,0.36c-0.72,0-1.29-0.25-1.71-0.74s-0.64-1.18-0.64-2.08v-1.44
		V6.34H101.86z"/>
	<path d="M108.92,19l0.4-0.7l0.4-0.72l0.94-1.76l0.68,0.2l-0.06,0.34c-0.01,0.09-0.02,0.18-0.02,0.25c0,0.07,0,0.12,0,0.15
		c0,0.43,0.09,0.75,0.28,0.96c0.19,0.21,0.35,0.36,0.48,0.43c0.13,0.07,0.29,0.11,0.48,0.11c0.45,0,0.93-0.34,1.44-1.02l0.22-0.32
		l0.16-0.24l0.1-0.18L114,15.7c-0.73-1.32-1.32-2.48-1.76-3.49s-0.96-2.39-1.56-4.17l-0.34-0.96c-0.16-0.51-0.35-0.8-0.56-0.89
		c-0.21-0.09-0.4-0.14-0.56-0.17V5.36h5.66v0.66h-0.08h-0.18c-0.28,0.04-0.48,0.13-0.61,0.27c-0.13,0.14-0.19,0.37-0.19,0.69
		c0,0.45,0.09,0.96,0.28,1.51c0.19,0.55,0.36,1.03,0.53,1.42s0.42,0.96,0.75,1.69l0.64,1.44l0.34-0.84
		c0.48-1.23,0.82-2.19,1.01-2.88c0.19-0.69,0.29-1.21,0.29-1.57c0-0.55-0.09-0.95-0.26-1.2c-0.17-0.25-0.48-0.43-0.92-0.54h-0.24
		V5.36h4.22v0.62l-0.12,0.04c-0.49,0.19-0.86,0.57-1.1,1.14l-0.3,0.72l-0.14,0.34l-0.1,0.3l-0.4,1.1l-0.66,1.73l-0.24,0.62
		l-0.58,1.42c-0.35,0.87-0.62,1.53-0.83,1.99c-0.21,0.45-0.46,0.96-0.76,1.5c-0.3,0.55-0.59,1-0.88,1.36
		c-0.29,0.36-0.61,0.68-0.96,0.95c-0.35,0.27-0.73,0.48-1.12,0.63c-0.39,0.15-0.77,0.22-1.13,0.22c-0.69,0-1.32-0.24-1.88-0.72
		L108.92,19z"/>
	<path d="M127.12,10.8c-0.01-0.16-0.02-0.3-0.03-0.42c-0.01-0.12-0.01-0.22-0.01-0.3c0-1.48,0.47-2.7,1.41-3.67
		c0.94-0.97,2.2-1.45,3.77-1.45c0.84,0,1.55,0.07,2.13,0.22c0.58,0.15,1.15,0.44,1.72,0.87c0.57,0.43,1.03,1,1.39,1.69
		c0.36,0.69,0.54,1.45,0.54,2.26c0,1.65-0.55,2.99-1.65,4.01s-2.54,1.53-4.31,1.53c-1.41,0-2.55-0.43-3.42-1.28
		C127.79,13.41,127.28,12.25,127.12,10.8z M130.34,8.86c0,0.39,0.04,0.89,0.12,1.5c0.08,0.61,0.16,1.09,0.23,1.43
		c0.07,0.34,0.19,0.72,0.35,1.15c0.16,0.43,0.33,0.75,0.52,0.98s0.4,0.4,0.63,0.51c0.23,0.11,0.47,0.17,0.71,0.17
		c0.44,0,0.8-0.14,1.07-0.43c0.27-0.29,0.47-0.62,0.58-1.01s0.17-0.89,0.17-1.5c0-0.37-0.04-0.98-0.13-1.83
		c-0.09-0.85-0.24-1.56-0.47-2.14c-0.23-0.58-0.53-1.04-0.9-1.37c-0.33-0.27-0.67-0.4-1.02-0.4c-0.61,0-1.04,0.21-1.28,0.63
		c-0.24,0.42-0.4,0.8-0.47,1.13C130.38,8.01,130.34,8.41,130.34,8.86z"/>
	<path d="M139.12,15.2v-0.7l0.22-0.02c0.63-0.07,1.08-0.24,1.35-0.51c0.27-0.27,0.4-0.71,0.4-1.31V12v-0.48v-5.2h-1.7V5.38h1.76
		V4.82c0-1.49,0.36-2.67,1.07-3.52c0.71-0.85,1.64-1.28,2.79-1.28c0.36,0,0.7,0.03,1.02,0.1c0.32,0.07,0.68,0.19,1.08,0.36
		l0.18,0.08l0.18,0.08l-0.76,3.04l-0.64-0.14V3.08l-0.06-0.78c-0.09-0.57-0.23-0.95-0.4-1.13c-0.17-0.18-0.36-0.27-0.56-0.27
		c-0.23,0-0.4,0.07-0.52,0.2c-0.12,0.13-0.21,0.28-0.26,0.45c-0.05,0.17-0.1,0.39-0.15,0.67c-0.05,0.28-0.08,0.65-0.11,1.11
		c-0.03,0.46-0.04,0.94-0.04,1.45l0.02,0.6h2.72v0.94H144v5.19v0.32v0.86c0,0.59,0.13,1.02,0.39,1.28c0.26,0.27,0.7,0.43,1.32,0.5
		h0.43l0.04,0.7l-3.52-0.06L139.12,15.2z"/>
	<path d="M152.2,13.44l0.34-0.86l0.32-0.84l0.42-1.1l0.42-1.08l0.74,0.3l0.02,0.6c0,0.68,0.09,1.25,0.28,1.71
		c0.19,0.46,0.49,0.89,0.92,1.29l0.52,0.42c0.71,0.45,1.47,0.68,2.28,0.68c0.36,0,0.73-0.06,1.12-0.18c0.39-0.12,0.72-0.36,1-0.72
		c0.28-0.36,0.42-0.76,0.42-1.2c0-0.44-0.1-0.78-0.29-1.03c-0.19-0.25-0.39-0.46-0.59-0.63s-0.47-0.39-0.82-0.65
		c-0.35-0.26-0.91-0.63-1.7-1.11l-1.34-0.82l-0.18-0.1l-0.5-0.36c-0.8-0.6-1.35-1.14-1.66-1.62s-0.46-1.05-0.46-1.72
		c0-1.21,0.46-2.22,1.37-3.02c0.91-0.8,2.2-1.2,3.85-1.2c0.64,0,1.32,0.07,2.04,0.2c0.72,0.13,1.49,0.35,2.32,0.64l0.94,0.36
		l-0.32,0.98c-0.29,0.97-0.57,1.97-0.84,3l-0.9-0.14l-0.02-0.26c-0.11-0.93-0.34-1.68-0.69-2.23c-0.35-0.55-0.76-0.93-1.21-1.13
		c-0.45-0.2-0.79-0.32-1-0.35c-0.21-0.03-0.44-0.05-0.68-0.05c-0.31,0-0.61,0.04-0.92,0.13c-0.31,0.09-0.57,0.27-0.8,0.55
		c-0.23,0.28-0.34,0.61-0.34,0.98c0,0.33,0.1,0.65,0.29,0.94c0.19,0.29,0.39,0.53,0.6,0.71c0.21,0.18,0.59,0.46,1.15,0.83l1.04,0.7
		l0.18,0.12l0.8,0.52l0.52,0.32c0.57,0.35,1.03,0.65,1.37,0.9c0.34,0.25,0.65,0.53,0.92,0.83c0.27,0.3,0.5,0.69,0.69,1.16
		c0.19,0.47,0.28,0.96,0.28,1.45c0,0.72-0.19,1.39-0.56,2.01c-0.37,0.62-0.91,1.12-1.62,1.49c-0.71,0.37-1.65,0.62-2.84,0.74h-0.62
		h-0.24c-0.56,0-1.1-0.05-1.62-0.14l-0.78-0.16C154.38,14.89,153.17,14.27,152.2,13.44z"/>
	<path d="M164.68,19l0.4-0.7l0.4-0.72l0.94-1.76l0.68,0.2l-0.06,0.34c-0.01,0.09-0.02,0.18-0.02,0.25c0,0.07,0,0.12,0,0.15
		c0,0.43,0.09,0.75,0.28,0.96c0.19,0.21,0.35,0.36,0.48,0.43c0.13,0.07,0.29,0.11,0.48,0.11c0.45,0,0.93-0.34,1.44-1.02l0.22-0.32
		l0.16-0.24l0.1-0.18l-0.42-0.8c-0.73-1.32-1.32-2.48-1.76-3.49s-0.96-2.39-1.56-4.17l-0.34-0.96c-0.16-0.51-0.35-0.8-0.56-0.89
		c-0.21-0.09-0.4-0.14-0.56-0.17V5.36h5.66v0.66h-0.08h-0.18c-0.28,0.04-0.48,0.13-0.61,0.27c-0.13,0.14-0.19,0.37-0.19,0.69
		c0,0.45,0.09,0.96,0.28,1.51c0.19,0.55,0.36,1.03,0.53,1.42s0.42,0.96,0.75,1.69l0.64,1.44l0.34-0.84
		c0.48-1.23,0.82-2.19,1.01-2.88c0.19-0.69,0.29-1.21,0.29-1.57c0-0.55-0.09-0.95-0.26-1.2c-0.17-0.25-0.48-0.43-0.92-0.54H172V5.36
		h4.22v0.62l-0.12,0.04c-0.49,0.19-0.86,0.57-1.1,1.14l-0.3,0.72l-0.14,0.34l-0.1,0.3l-0.4,1.1l-0.66,1.73l-0.24,0.62l-0.58,1.42
		c-0.35,0.87-0.62,1.53-0.83,1.99c-0.21,0.45-0.46,0.96-0.76,1.5c-0.3,0.55-0.59,1-0.88,1.36c-0.29,0.36-0.61,0.68-0.96,0.95
		c-0.35,0.27-0.73,0.48-1.12,0.63c-0.39,0.15-0.77,0.22-1.13,0.22c-0.69,0-1.32-0.24-1.88-0.72L164.68,19z"/>
	<path d="M176.5,13.92l0.2-0.58l0.2-0.58l0.22-0.72l0.22-0.7l0.84,0.22c0,0.21,0.04,0.55,0.12,1c0.08,0.45,0.41,0.89,0.99,1.32
		c0.58,0.43,1.17,0.64,1.77,0.64c0.29,0,0.54-0.05,0.75-0.14s0.37-0.23,0.49-0.42c0.12-0.19,0.18-0.37,0.18-0.56
		c0-0.08-0.01-0.17-0.03-0.27c-0.02-0.1-0.08-0.21-0.18-0.32c-0.1-0.11-0.26-0.25-0.49-0.41l-0.46-0.28l-0.24-0.16l-0.66-0.38
		l-0.22-0.14l-0.7-0.4l-0.24-0.14l-0.5-0.32c-0.56-0.39-0.96-0.79-1.21-1.2c-0.25-0.41-0.37-0.87-0.37-1.36
		c0-0.89,0.4-1.63,1.21-2.2s1.92-0.86,3.35-0.86c0.23,0,0.4,0.01,0.53,0.03c0.13,0.02,0.48,0.1,1.07,0.25
		c0.59,0.15,1.14,0.43,1.66,0.84l-0.18,0.62l-0.2,0.64l-0.46,1.34l-0.82-0.22L183.3,8.1c-0.17-0.93-0.53-1.54-1.08-1.81
		c-0.55-0.27-0.99-0.41-1.32-0.41c-0.23,0-0.48,0.07-0.75,0.22c-0.27,0.15-0.41,0.4-0.41,0.76c0,0.24,0.07,0.45,0.2,0.62
		c0.13,0.17,0.28,0.32,0.44,0.44c0.16,0.12,0.41,0.27,0.74,0.46l1.08,0.58l0.16,0.08l0.88,0.48c0.48,0.27,0.84,0.52,1.08,0.75
		c0.24,0.23,0.45,0.53,0.63,0.9s0.27,0.76,0.27,1.17c0,0.76-0.31,1.43-0.93,2c-0.62,0.57-1.24,0.89-1.86,0.96
		c-0.62,0.07-0.99,0.1-1.1,0.11c-0.11,0.01-0.21,0.01-0.29,0.01c-0.49,0-0.97-0.05-1.44-0.14l-0.68-0.16
		C177.93,14.85,177.12,14.45,176.5,13.92z"/>
	<path d="M186.66,6.34V5.5l0.32-0.04c1.09-0.13,1.85-0.49,2.28-1.07s0.75-1.19,0.96-1.82l0.14-0.42l0.08-0.28h0.64l-0.02,0.92
		l-0.04,0.92v0.84l-0.06,0.84H194v0.96h-3.04v4.4v1.18c0,0.63,0.1,1.08,0.31,1.37c0.21,0.29,0.53,0.43,0.97,0.43
		c0.16,0,0.33-0.02,0.52-0.06s0.35-0.08,0.48-0.13s0.34-0.14,0.62-0.27l0.18-0.1l0.06-0.02l0.4,0.7l-0.22,0.12l-0.1,0.04l-0.62,0.34
		l-0.4,0.24c-0.15,0.09-0.51,0.26-1.1,0.5c-0.58,0.24-1.11,0.36-1.57,0.36c-0.72,0-1.29-0.25-1.71-0.74s-0.64-1.18-0.64-2.08v-1.44
		V6.34H186.66z"/>
	<path d="M204.56,9.92h-6.66l0.02,0.58c0.16,1.01,0.53,1.79,1.11,2.36c0.58,0.56,1.31,0.85,2.18,0.85c0.86,0,1.79-0.28,2.81-0.84
		l0.4-0.26l0.5,0.7l-1.34,0.91c-0.49,0.3-0.88,0.53-1.17,0.68s-0.58,0.28-0.89,0.4c-0.31,0.12-0.61,0.21-0.92,0.26
		c-0.31,0.05-0.62,0.08-0.94,0.08c-1.39,0-2.56-0.5-3.51-1.51c-0.95-1.01-1.43-2.26-1.43-3.77c0-1.03,0.24-1.95,0.73-2.77
		c0.49-0.82,1.16-1.47,2.01-1.94c0.85-0.47,1.74-0.71,2.66-0.71c1.03,0,1.94,0.29,2.73,0.87c0.79,0.58,1.26,1.14,1.39,1.68
		s0.22,0.9,0.26,1.09c0.04,0.19,0.06,0.34,0.06,0.43c0,0.12,0,0.29,0,0.51C204.56,9.73,204.56,9.87,204.56,9.92z M197.92,8.96h3.72
		V8.54c0-0.34-0.01-0.59-0.03-0.75s-0.09-0.44-0.21-0.82c-0.12-0.38-0.32-0.67-0.6-0.9s-0.58-0.33-0.92-0.33
		c-0.34,0-0.68,0.13-0.99,0.39s-0.56,0.59-0.73,0.98c-0.17,0.39-0.25,0.87-0.25,1.43V8.96z"/>
	<path d="M206,15.2v-0.7h0.16c0.73-0.09,1.21-0.27,1.43-0.54c0.22-0.26,0.33-0.8,0.33-1.63v-0.32V8.68V7.75c0-0.48-0.1-0.82-0.31-1
		c-0.21-0.18-0.58-0.27-1.11-0.27l-0.48-0.02V5.67l1.26-0.18l1.28-0.16l1.14-0.18L210.84,5l-0.06,1.78l0.2-0.2l0.22-0.2l0.36-0.3
		c0.47-0.36,0.93-0.63,1.39-0.81c0.46-0.18,0.9-0.27,1.31-0.27c0.96,0,1.69,0.39,2.18,1.16l0.18,0.32l0.26-0.2
		c0.56-0.41,1.03-0.7,1.41-0.87c0.38-0.17,0.71-0.28,0.98-0.33c0.27-0.05,0.54-0.08,0.81-0.08c0.67,0,1.24,0.19,1.72,0.56
		c0.48,0.37,0.76,0.77,0.85,1.19c0.09,0.42,0.13,0.79,0.13,1.11v1.72v2.18v0.78v0.3c0.05,0.55,0.26,0.82,0.63,0.82
		c0.11,0,0.24-0.02,0.4-0.06l0.2-0.04l0.4-0.16l0.08-0.02l0.2-0.08l0.28,0.59l-0.28,0.16l-0.24,0.14l-0.94,0.53l-0.94,0.48
		c-0.35,0.19-0.64,0.28-0.9,0.28c-0.31,0-0.75-0.14-1.33-0.43l-0.3-0.16l-0.22-0.12l-0.14-0.1l0.06-0.6v-0.54l0.08-1.87V9.75
		l0.04-1.39c0-1.22-0.45-1.83-1.35-1.83c-0.18,0-0.32,0.01-0.4,0.03s-0.21,0.06-0.36,0.13l-0.25,0.12l-0.43,0.24l-0.1,0.08
		l-0.1,0.06v0.36v0.26c0,0.28,0,0.55,0,0.82c0,0.27,0,0.52,0,0.76v0.52v1.34v0.52v0.64c0,0.83,0.25,1.24,0.74,1.24
		c0.16,0,0.33-0.04,0.52-0.12l0.06-0.04l0.27-0.12l0.06-0.02l0.17-0.06l0.27,0.64l-0.26,0.14l-0.24,0.14l-0.44,0.24l-0.62,0.32
		l-0.2,0.1l-0.86,0.38c-0.16,0.07-0.3,0.12-0.43,0.16c-0.13,0.04-0.26,0.06-0.39,0.06c-0.31,0-0.71-0.14-1.22-0.43l-0.34-0.2
		l-0.28-0.18l-0.12-0.06l0.06-0.72l0.04-0.7l0.12-2.5V9.46V8.82c0-0.39-0.01-0.64-0.02-0.75c-0.01-0.11-0.06-0.37-0.15-0.76
		c-0.09-0.39-0.43-0.59-1.04-0.59c-0.21,0-0.46,0.06-0.72,0.18l-0.46,0.26l-0.08,0.06L211,7.46l-0.06,0.02l-0.16,0.12v4.34v0.46
		c0,0.76,0.11,1.28,0.34,1.56c0.23,0.28,0.68,0.46,1.36,0.54h0.18v0.7H206z"/>
	<path d="M231.72,8.76V8.54V8.38V7.66c0-1.11-0.41-1.66-1.23-1.66c-0.07,0-0.2,0.02-0.39,0.05s-0.42,0.13-0.67,0.29
		c-0.25,0.16-0.49,0.36-0.73,0.59c-0.24,0.23-0.42,0.44-0.56,0.61c-0.14,0.17-0.32,0.41-0.54,0.7l-0.34,0.46l-0.06,0.1l-0.9-0.38
		l0.52-1.52l0.4-1.38l0.44-0.1l0.42-0.08l0.5-0.08c0.61-0.09,1.09-0.15,1.42-0.17s0.73-0.03,1.2-0.03c1.23,0,2.09,0.26,2.58,0.78
		c0.49,0.52,0.74,1.37,0.74,2.54v3.2v0.68v0.28c0,0.6,0.24,0.9,0.71,0.9c0.12,0,0.28-0.02,0.46-0.06l0.18-0.06l0.14-0.08l0.32-0.16
		l0.16-0.08l0.32,0.69l-0.08,0.06l-0.16,0.12l-0.74,0.49l-0.12,0.08l-0.68,0.37c-0.75,0.41-1.29,0.61-1.64,0.61
		c-0.29,0-0.65-0.14-1.08-0.41l-0.32-0.2l-0.22-0.16l-0.12-0.1l0.06-1.51l-0.3,0.28l-0.26,0.26l-0.18,0.16l-0.5,0.46
		c-0.44,0.41-0.87,0.72-1.3,0.92c-0.43,0.2-0.84,0.3-1.22,0.3c-0.79,0-1.38-0.3-1.76-0.89c-0.38-0.59-0.57-1.12-0.57-1.59
		c0-0.72,0.34-1.4,1.01-2.04c0.67-0.64,1.68-1.17,3.01-1.58l0.7-0.2l0.48-0.14l0.42-0.1L231.72,8.76z M231.72,9.46l-0.18,0.08
		l-0.47,0.2c-0.2,0.09-0.42,0.19-0.65,0.29s-0.5,0.25-0.8,0.44s-0.54,0.44-0.7,0.75s-0.24,0.59-0.24,0.86
		c0,0.31,0.09,0.56,0.28,0.76c0.19,0.2,0.43,0.31,0.73,0.34c0.19,0,0.35-0.02,0.48-0.05c0.13-0.03,0.29-0.1,0.48-0.2
		s0.35-0.19,0.49-0.28c0.14-0.09,0.26-0.18,0.39-0.29l0.12-0.1l0.08-0.08V9.46z"/>
	<path d="M237.18,6.34V5.5l0.32-0.04c1.09-0.13,1.85-0.49,2.28-1.07c0.43-0.58,0.75-1.19,0.96-1.82l0.14-0.42l0.08-0.28h0.64
		l-0.02,0.92l-0.04,0.92v0.84l-0.06,0.84h3.04v0.96h-3.04v4.4v1.18c0,0.63,0.1,1.08,0.31,1.37c0.21,0.29,0.53,0.43,0.97,0.43
		c0.16,0,0.33-0.02,0.52-0.06c0.19-0.04,0.35-0.08,0.48-0.13c0.13-0.05,0.34-0.14,0.62-0.27l0.18-0.1l0.06-0.02l0.4,0.7l-0.22,0.12
		L244.7,14l-0.62,0.34l-0.4,0.24c-0.15,0.09-0.51,0.26-1.1,0.5c-0.58,0.24-1.11,0.36-1.58,0.36c-0.72,0-1.29-0.25-1.71-0.74
		c-0.43-0.49-0.64-1.18-0.64-2.08v-1.44V6.34H237.18z"/>
	<path d="M244.6,6.34V5.7c0.57,0,1.22-0.04,1.94-0.13s1.7-0.27,2.92-0.55l-0.02,0.85v0.85V8.6v3.2v0.87v0.24
		c0,0.54,0.13,0.93,0.4,1.17c0.26,0.24,0.72,0.4,1.37,0.46h0.2v0.66h-6.8v-0.66h0.25c0.61,0,1.05-0.17,1.33-0.51
		c0.27-0.34,0.41-0.92,0.41-1.72v-0.46V9V7.89c0-0.52-0.1-0.9-0.3-1.13c-0.2-0.23-0.57-0.37-1.11-0.42h-0.44H244.6z M246.38,2.3
		c0-0.51,0.09-0.91,0.27-1.2c0.18-0.29,0.38-0.5,0.6-0.62c0.22-0.12,0.46-0.18,0.71-0.18c0.48,0,0.87,0.19,1.17,0.56
		c0.3,0.37,0.45,0.83,0.45,1.36c0,0.52-0.15,0.96-0.44,1.33s-0.69,0.55-1.18,0.55c-0.44,0-0.77-0.13-0.99-0.39
		c-0.22-0.26-0.37-0.5-0.46-0.71C246.42,2.79,246.38,2.55,246.38,2.3z"/>
	<path d="M261.72,5.94l-0.2,0.78l-0.2,0.78l-0.4,1.78l-0.86-0.08c-0.04-0.36-0.13-0.77-0.27-1.22c-0.14-0.45-0.39-0.86-0.75-1.22
		s-0.7-0.56-1.01-0.61c-0.31-0.05-0.51-0.07-0.59-0.07c-0.64,0-1.17,0.25-1.59,0.75c-0.42,0.5-0.63,1.17-0.63,2.02
		c0,0.28,0.03,0.59,0.08,0.92c0.05,0.33,0.2,0.75,0.45,1.24s0.65,1.04,1.2,1.63c0.55,0.6,1.32,0.89,2.29,0.89
		c0.73,0,1.55-0.25,2.44-0.74l0.3-0.18l0.5,0.74l-0.3,0.2l-0.5,0.34l-0.78,0.5c-0.69,0.43-1.32,0.74-1.89,0.93
		c-0.57,0.19-1.1,0.29-1.61,0.29c-0.17,0-0.31,0-0.4,0c-1.35,0-2.44-0.45-3.27-1.35c-0.83-0.9-1.25-2.04-1.25-3.42
		c0-0.28,0.01-0.5,0.02-0.66s0.08-0.54,0.2-1.12s0.45-1.23,0.98-1.91c0.53-0.68,1.2-1.21,1.99-1.59S257.3,5,258.2,5
		c0.49,0,1.04,0.06,1.65,0.19C260.45,5.32,261.08,5.57,261.72,5.94z"/>
	<path d="M268.56,15.2v-0.7h0.24c0.76,0,1.27-0.19,1.53-0.56c0.26-0.38,0.39-1.13,0.39-2.27v-0.34V4.75V3.58
		c0-0.69-0.14-1.2-0.41-1.52c-0.27-0.32-0.74-0.51-1.41-0.58h-0.31V0.72c0.44,0,1.08,0,1.91,0s1.44,0,1.83,0h0.38h1.18l1.42-0.1
		c1.67,0,2.86,0.06,3.59,0.19c0.73,0.13,1.3,0.36,1.71,0.71c0.41,0.35,0.71,0.71,0.89,1.09c0.18,0.38,0.27,0.78,0.27,1.19
		c0,0.96-0.36,1.67-1.09,2.14c-0.73,0.47-1.5,0.79-2.33,0.96L277.7,7v0.08l0.5,0.04c1.04,0.11,1.85,0.28,2.43,0.51
		s1.06,0.54,1.43,0.93c0.37,0.39,0.64,0.79,0.81,1.22c0.17,0.43,0.25,0.87,0.25,1.34c0,0.67-0.17,1.3-0.51,1.91
		c-0.34,0.61-0.8,1.09-1.39,1.44c-0.59,0.35-1.24,0.59-1.95,0.71c-0.71,0.12-1.77,0.18-3.17,0.18h-0.66h-0.32l-1.3-0.16h-1.8H268.56
		z M273.94,6.78l0.58,0.02c1.37,0,2.36-0.21,2.95-0.63c0.59-0.42,0.89-1.1,0.89-2.04c0-1.46-0.35-2.26-1.04-2.4
		c-0.7-0.14-1.11-0.22-1.23-0.23c-0.12-0.01-0.23-0.02-0.34-0.02c-0.56,0-1,0.15-1.33,0.46s-0.48,0.74-0.48,1.29v0.48v0.5V6.78z
		 M273.94,11.32v1.02v0.16c0,0.58,0.21,1.05,0.62,1.41c0.41,0.35,1,0.53,1.75,0.53c0.09,0,0.2-0.01,0.32-0.02
		c0.12-0.01,0.4-0.04,0.83-0.09c0.43-0.05,0.9-0.35,1.38-0.9c0.49-0.55,0.73-1.23,0.73-2.05c0-0.32-0.09-0.81-0.27-1.48
		c-0.18-0.66-0.64-1.2-1.39-1.6c-0.75-0.4-1.89-0.6-3.42-0.6h-0.56V11.32z"/>
	<path d="M283.94,6.34V5.7c0.57,0,1.22-0.04,1.94-0.13s1.7-0.27,2.92-0.55l-0.02,0.85v0.85V8.6v3.2v0.87v0.24
		c0,0.54,0.13,0.93,0.4,1.17c0.26,0.24,0.72,0.4,1.37,0.46h0.2v0.66h-6.8v-0.66h0.25c0.61,0,1.05-0.17,1.33-0.51
		c0.27-0.34,0.41-0.92,0.41-1.72v-0.46V9V7.89c0-0.52-0.1-0.9-0.3-1.13c-0.2-0.23-0.57-0.37-1.11-0.42h-0.44H283.94z M285.72,2.3
		c0-0.51,0.09-0.91,0.27-1.2c0.18-0.29,0.38-0.5,0.6-0.62c0.22-0.12,0.46-0.18,0.71-0.18c0.48,0,0.87,0.19,1.17,0.56
		c0.3,0.37,0.45,0.83,0.45,1.36c0,0.52-0.15,0.96-0.44,1.33s-0.69,0.55-1.18,0.55c-0.44,0-0.77-0.13-0.99-0.39
		c-0.22-0.26-0.37-0.5-0.46-0.71C285.76,2.79,285.72,2.55,285.72,2.3z"/>
	<path d="M291.82,10.8c-0.01-0.16-0.02-0.3-0.03-0.42c-0.01-0.12-0.01-0.22-0.01-0.3c0-1.48,0.47-2.7,1.41-3.67
		c0.94-0.97,2.2-1.45,3.77-1.45c0.84,0,1.55,0.07,2.13,0.22c0.58,0.15,1.15,0.44,1.72,0.87c0.57,0.43,1.03,1,1.39,1.69
		c0.36,0.69,0.54,1.45,0.54,2.26c0,1.65-0.55,2.99-1.65,4.01c-1.1,1.02-2.54,1.53-4.31,1.53c-1.41,0-2.55-0.43-3.42-1.28
		C292.49,13.41,291.98,12.25,291.82,10.8z M295.04,8.86c0,0.39,0.04,0.89,0.12,1.5s0.16,1.09,0.23,1.43
		c0.07,0.34,0.19,0.72,0.35,1.15c0.16,0.43,0.33,0.75,0.52,0.98s0.4,0.4,0.63,0.51s0.47,0.17,0.71,0.17c0.44,0,0.8-0.14,1.07-0.43
		s0.47-0.62,0.58-1.01s0.17-0.89,0.17-1.5c0-0.37-0.04-0.98-0.13-1.83c-0.09-0.85-0.24-1.56-0.47-2.14
		c-0.23-0.58-0.53-1.04-0.9-1.37c-0.33-0.27-0.67-0.4-1.02-0.4c-0.61,0-1.04,0.21-1.28,0.63s-0.4,0.8-0.47,1.13
		C295.07,8.01,295.04,8.41,295.04,8.86z"/>
	<path d="M303.68,1.16v-0.7c0.46,0,0.78-0.01,0.95-0.02c0.17-0.01,0.75-0.07,1.74-0.18c0.38,0,0.77-0.03,1.16-0.08
		c0.38-0.05,0.77-0.11,1.16-0.18l-0.04,1.7v2v7.94v1.02v0.14c0,1.13,0.59,1.7,1.76,1.7h0.16v0.7h-6.88v-0.7h0.2
		c0.76-0.08,1.27-0.27,1.52-0.58s0.38-0.93,0.38-1.87v-0.42V4.21V4.05V3.06c0-1.27-0.63-1.9-1.9-1.9H303.68z"/>
	<path d="M311.74,10.8c-0.01-0.16-0.02-0.3-0.03-0.42c-0.01-0.12-0.01-0.22-0.01-0.3c0-1.48,0.47-2.7,1.41-3.67
		c0.94-0.97,2.2-1.45,3.77-1.45c0.84,0,1.55,0.07,2.13,0.22c0.58,0.15,1.15,0.44,1.72,0.87c0.57,0.43,1.03,1,1.39,1.69
		c0.36,0.69,0.54,1.45,0.54,2.26c0,1.65-0.55,2.99-1.65,4.01c-1.1,1.02-2.54,1.53-4.31,1.53c-1.41,0-2.55-0.43-3.42-1.28
		C312.41,13.41,311.9,12.25,311.74,10.8z M314.96,8.86c0,0.39,0.04,0.89,0.12,1.5s0.16,1.09,0.23,1.43
		c0.07,0.34,0.19,0.72,0.35,1.15c0.16,0.43,0.33,0.75,0.52,0.98s0.4,0.4,0.63,0.51s0.47,0.17,0.71,0.17c0.44,0,0.8-0.14,1.07-0.43
		s0.47-0.62,0.58-1.01s0.17-0.89,0.17-1.5c0-0.37-0.04-0.98-0.13-1.83c-0.09-0.85-0.24-1.56-0.47-2.14
		c-0.23-0.58-0.53-1.04-0.9-1.37c-0.33-0.27-0.67-0.4-1.02-0.4c-0.61,0-1.04,0.21-1.28,0.63s-0.4,0.8-0.47,1.13
		C314.99,8.01,314.96,8.41,314.96,8.86z"/>
	<path d="M323.38,18.9l1.42-2.24l0.7,0.24c0.09,0.43,0.35,0.77,0.76,1.03c0.41,0.26,1.03,0.47,1.86,0.64
		c0.83,0.17,1.51,0.25,2.04,0.25c0.37,0,0.76-0.05,1.16-0.14c0.4-0.09,0.71-0.23,0.93-0.41c0.22-0.18,0.33-0.41,0.33-0.69
		c0-0.65-0.63-0.98-1.9-0.98h-0.98h-0.4h-1.44h-0.7h-0.42c-0.32,0-0.69-0.05-1.11-0.16c-0.42-0.11-0.74-0.28-0.95-0.52
		c-0.21-0.24-0.32-0.51-0.32-0.82c0-0.28,0.08-0.53,0.24-0.76s0.29-0.4,0.4-0.52c0.11-0.12,0.25-0.26,0.42-0.42l0.48-0.4l0.28-0.24
		l0.2-0.16l0.18-0.14l-0.3-0.16c-0.56-0.32-1-0.75-1.32-1.29s-0.48-1.15-0.48-1.83c0-0.11,0-0.21,0.01-0.3s0.07-0.42,0.18-0.99
		c0.11-0.57,0.49-1.14,1.14-1.73c0.65-0.59,1.26-0.93,1.84-1.03c0.58-0.1,0.97-0.16,1.17-0.17c0.2-0.01,0.51-0.02,0.92-0.02
		c0.56,0,1.04,0.07,1.44,0.22c0.4,0.15,0.78,0.36,1.14,0.64l0.16-0.12c0.65-0.49,1.29-0.74,1.92-0.74c0.43,0,0.87,0.11,1.32,0.34
		l0.28,0.16l-0.22,0.58c-0.16,0.52-0.28,0.9-0.36,1.15s-0.15,0.48-0.2,0.71l-0.74-0.2l0.04-0.2c0.01-0.05,0.02-0.13,0.02-0.24
		c0-0.35-0.11-0.63-0.34-0.84s-0.49-0.32-0.78-0.32c-0.16,0-0.31,0.04-0.46,0.12l-0.22,0.12c0.25,0.16,0.47,0.38,0.64,0.67
		s0.3,0.61,0.37,0.98s0.11,0.69,0.11,0.97c0,0.29-0.11,0.94-0.32,1.94c-0.21,1-0.87,1.6-1.98,1.79c-1.11,0.19-1.75,0.3-1.93,0.31
		c-0.18,0.01-0.35,0.02-0.51,0.02c-0.61,0-1.2-0.11-1.76-0.32l-0.2,0.32L327,13.15c-0.15,0.19-0.22,0.37-0.22,0.53
		c0,0.19,0.14,0.34,0.42,0.44l0.16,0.06h0.14h0.3l0.64-0.06h1.26h0.6c0.44,0,0.88,0,1.31,0.01s0.86,0.08,1.29,0.23
		c0.43,0.15,0.78,0.42,1.07,0.83c0.29,0.41,0.43,0.88,0.43,1.41c0,0.44-0.14,0.93-0.41,1.47s-0.74,1-1.4,1.38s-1.31,0.61-1.96,0.7
		c-0.65,0.09-1.1,0.13-1.36,0.13s-0.46,0.01-0.61,0.02h-0.96C326.02,20.14,324.58,19.67,323.38,18.9z M327.46,8.02v0.5
		c0,0.43,0.03,0.8,0.09,1.12c0.06,0.32,0.16,0.64,0.29,0.96c0.08,0.24,0.15,0.42,0.22,0.54c0.07,0.12,0.19,0.29,0.38,0.52
		c0.19,0.23,0.47,0.34,0.86,0.34c0.32,0,0.59-0.11,0.8-0.32c0.21-0.21,0.36-0.47,0.45-0.76c0.09-0.29,0.13-0.68,0.13-1.16
		c0-0.28-0.02-0.59-0.06-0.92s-0.08-0.6-0.12-0.79c-0.04-0.19-0.11-0.42-0.21-0.67c-0.1-0.25-0.2-0.47-0.3-0.66
		c-0.1-0.19-0.23-0.36-0.4-0.53c-0.17-0.17-0.4-0.25-0.71-0.25c-0.45,0-0.78,0.16-0.98,0.48c-0.2,0.32-0.32,0.59-0.37,0.82
		C327.48,7.47,327.46,7.73,327.46,8.02z"/>
	<path d="M335.62,6.34V5.7c0.57,0,1.22-0.04,1.94-0.13s1.7-0.27,2.92-0.55l-0.02,0.85v0.85V8.6v3.2v0.87v0.24
		c0,0.54,0.13,0.93,0.4,1.17c0.26,0.24,0.72,0.4,1.37,0.46h0.2v0.66h-6.8v-0.66h0.25c0.61,0,1.05-0.17,1.33-0.51
		c0.27-0.34,0.41-0.92,0.41-1.72v-0.46V9V7.89c0-0.52-0.1-0.9-0.3-1.13c-0.2-0.23-0.57-0.37-1.11-0.42h-0.44H335.62z M337.4,2.3
		c0-0.51,0.09-0.91,0.27-1.2c0.18-0.29,0.38-0.5,0.6-0.62c0.22-0.12,0.46-0.18,0.71-0.18c0.48,0,0.87,0.19,1.17,0.56
		c0.3,0.37,0.45,0.83,0.45,1.36c0,0.52-0.15,0.96-0.44,1.33s-0.69,0.55-1.18,0.55c-0.44,0-0.77-0.13-0.99-0.39
		c-0.22-0.26-0.37-0.5-0.46-0.71C337.44,2.79,337.4,2.55,337.4,2.3z"/>
	<path d="M342.92,13.92l0.2-0.58l0.2-0.58l0.22-0.72l0.22-0.7l0.84,0.22c0,0.21,0.04,0.55,0.12,1c0.08,0.45,0.41,0.89,0.99,1.32
		s1.17,0.64,1.77,0.64c0.29,0,0.54-0.05,0.75-0.14s0.37-0.23,0.49-0.42c0.12-0.19,0.18-0.37,0.18-0.56c0-0.08-0.01-0.17-0.03-0.27
		c-0.02-0.1-0.08-0.21-0.18-0.32c-0.1-0.11-0.26-0.25-0.49-0.41l-0.46-0.28l-0.24-0.16l-0.66-0.38l-0.22-0.14l-0.7-0.4l-0.24-0.14
		l-0.5-0.32c-0.56-0.39-0.96-0.79-1.21-1.2c-0.25-0.41-0.37-0.87-0.37-1.36c0-0.89,0.4-1.63,1.21-2.2s1.92-0.86,3.35-0.86
		c0.23,0,0.4,0.01,0.53,0.03s0.48,0.1,1.07,0.25c0.59,0.15,1.14,0.43,1.66,0.84l-0.18,0.62l-0.2,0.64l-0.46,1.34l-0.82-0.22
		l-0.04-0.36c-0.17-0.93-0.53-1.54-1.08-1.81c-0.55-0.27-0.99-0.41-1.32-0.41c-0.23,0-0.48,0.07-0.75,0.22
		c-0.27,0.15-0.41,0.4-0.41,0.76c0,0.24,0.07,0.45,0.2,0.62c0.13,0.17,0.28,0.32,0.44,0.44c0.16,0.12,0.41,0.27,0.74,0.46l1.08,0.58
		l0.16,0.08l0.88,0.48c0.48,0.27,0.84,0.52,1.08,0.75c0.24,0.23,0.45,0.53,0.63,0.9c0.18,0.37,0.27,0.76,0.27,1.17
		c0,0.76-0.31,1.43-0.93,2s-1.24,0.89-1.86,0.96c-0.62,0.07-0.99,0.1-1.1,0.11c-0.11,0.01-0.21,0.01-0.29,0.01
		c-0.49,0-0.97-0.05-1.44-0.14l-0.68-0.16C344.35,14.85,343.54,14.45,342.92,13.92z"/>
	<path d="M353.08,6.34V5.5l0.32-0.04c1.09-0.13,1.85-0.49,2.28-1.07c0.43-0.58,0.75-1.19,0.96-1.82l0.14-0.42l0.08-0.28h0.64
		l-0.02,0.92l-0.04,0.92v0.84l-0.06,0.84h3.04v0.96h-3.04v4.4v1.18c0,0.63,0.1,1.08,0.31,1.37c0.21,0.29,0.53,0.43,0.97,0.43
		c0.16,0,0.33-0.02,0.52-0.06c0.19-0.04,0.35-0.08,0.48-0.13c0.13-0.05,0.34-0.14,0.62-0.27l0.18-0.1l0.06-0.02l0.4,0.7l-0.22,0.12
		L360.6,14l-0.62,0.34l-0.4,0.24c-0.15,0.09-0.51,0.26-1.1,0.5c-0.58,0.24-1.11,0.36-1.58,0.36c-0.72,0-1.29-0.25-1.71-0.74
		c-0.43-0.49-0.64-1.18-0.64-2.08v-1.44V6.34H353.08z"/>
	<path d="M360.56,13.92l0.2-0.58l0.2-0.58l0.22-0.72l0.22-0.7l0.84,0.22c0,0.21,0.04,0.55,0.12,1c0.08,0.45,0.41,0.89,0.99,1.32
		s1.17,0.64,1.77,0.64c0.29,0,0.54-0.05,0.75-0.14s0.37-0.23,0.49-0.42c0.12-0.19,0.18-0.37,0.18-0.56c0-0.08-0.01-0.17-0.03-0.27
		c-0.02-0.1-0.08-0.21-0.18-0.32c-0.1-0.11-0.26-0.25-0.49-0.41l-0.46-0.28l-0.24-0.16l-0.66-0.38l-0.22-0.14l-0.7-0.4l-0.24-0.14
		l-0.5-0.32c-0.56-0.39-0.96-0.79-1.21-1.2c-0.25-0.41-0.37-0.87-0.37-1.36c0-0.89,0.4-1.63,1.21-2.2s1.92-0.86,3.35-0.86
		c0.23,0,0.4,0.01,0.53,0.03s0.48,0.1,1.07,0.25c0.59,0.15,1.14,0.43,1.66,0.84l-0.18,0.62l-0.2,0.64l-0.46,1.34l-0.82-0.22
		l-0.04-0.36c-0.17-0.93-0.53-1.54-1.08-1.81c-0.55-0.27-0.99-0.41-1.32-0.41c-0.23,0-0.48,0.07-0.75,0.22
		c-0.27,0.15-0.41,0.4-0.41,0.76c0,0.24,0.07,0.45,0.2,0.62c0.13,0.17,0.28,0.32,0.44,0.44c0.16,0.12,0.41,0.27,0.74,0.46l1.08,0.58
		l0.16,0.08l0.88,0.48c0.48,0.27,0.84,0.52,1.08,0.75c0.24,0.23,0.45,0.53,0.63,0.9c0.18,0.37,0.27,0.76,0.27,1.17
		c0,0.76-0.31,1.43-0.93,2s-1.24,0.89-1.86,0.96c-0.62,0.07-0.99,0.1-1.1,0.11c-0.11,0.01-0.21,0.01-0.29,0.01
		c-0.49,0-0.97-0.05-1.44-0.14l-0.68-0.16C361.99,14.85,361.18,14.45,360.56,13.92z"/>
</g>
</svg>
