<?xml version="1.0" encoding="utf-8"?>
<!-- Generator: Adobe Illustrator 22.1.0, SVG Export Plug-In . SVG Version: 6.00 Build 0)  -->
<svg version="1.2" baseProfile="tiny" id="Layer_1" xmlns="http://www.w3.org/2000/svg" xmlns:xlink="http://www.w3.org/1999/xlink"
	 x="0px" y="0px" viewBox="0 0 273.5 222.2" xml:space="preserve" fill="#ffffff">
<g>
	<path d="M273.5,26.6c-3,3.8-5.8,7.6-8.8,11.1c-5.4,6.3-11.5,12-18.3,16.9c-0.8,0.5-1,1.1-1,2.1c0.6,13.2-0.7,26.3-3.5,39.3
		c-4.5,20.3-12.3,39.2-23.9,56.5c-22.8,34.1-54,56.2-94.1,65.6c-11.7,2.7-23.5,4-35.5,4.1c-24.5,0.4-47.9-4.6-70-15
		c-5.9-2.8-11.6-6.3-17.4-9.4c-0.3-0.1-0.5-0.3-1-0.7c30.7,3.1,58.1-4.5,82.7-23c-25.7-2.1-43-15.1-52.1-39c8.4,1.3,16.6,1.1,25-1.1
		c-16.1-3.8-28.4-12.5-36.9-26.4c-5.4-8.9-7.9-18.7-7.9-29.4c7.8,4.3,16.1,6.6,25.2,7C23.9,76.4,16,65.2,12.8,50.9
		c-3.2-14.2-1.1-27.8,6.1-40.6c30.3,35.8,68.7,55.4,115.5,58.7c-0.4-2.5-0.8-4.7-1-7c-1.5-16.2,2.9-30.6,13.7-42.9
		C156.3,8.5,168,2.2,182,0.5c17.9-2.2,33.6,3.1,46.6,15.6c1.2,1.1,2.1,1.5,3.8,1.2c11.4-2.6,22.1-6.7,32.2-12.5
		c0.3-0.2,0.6-0.3,1.2-0.7c-4.4,13.2-12.4,23.3-23.9,30.8c5.4-0.5,10.7-1.5,15.9-3.1C263,30.2,268,28.4,273.5,26.6z"/>
</g>
</svg>
