<?xml version="1.0" ?>
<!DOCTYPE svg  PUBLIC '-//W3C//DTD SVG 1.1//EN'  'http://www.w3.org/Graphics/SVG/1.1/DTD/svg11.dtd'>
<svg style="width: 1em; height: 1em;vertical-align: middle;fill: currentColor;overflow: hidden;" viewBox="0 0 1024 1024" version="1.1" xmlns="http://www.w3.org/2000/svg">
<path d="M949.2 63.44c-33.696-32.4-70.88-48.832-110.576-48.832-62.064 0-107.344 40.224-119.728 52.56C701.488 84.48 106.832 681.488 106.832 681.488c-3.888 3.92-6.72 8.8-8.176 14.176-13.424 49.728-80.592 270.416-81.264 272.624-3.456 11.296-0.384 23.616 7.92 31.936 5.984 5.952 13.936 9.168 22.08 9.168 3.2 0 6.432-0.496 9.6-1.52 2.288-0.752 229.248-74.384 266.608-85.568 4.912-1.472 9.424-4.16 13.072-7.792 23.6-23.408 578.224-573.824 615.04-611.968 38.08-39.392 56.992-80.384 56.256-121.872C1007.248 139.712 987.472 100.272 949.2 63.44zM285.472 744.288c-32.368-32.736-65.296-51.216-90.688-61.616 109.2-109.632 394.464-396 514.272-516.208 15.632 3.76 52.768 16.16 90.912 54.784 38.528 38.992 48.8 83.472 50.672 93.344-121.632 121.44-401.616 399.44-512 509.008C328.432 799.776 311.968 771.088 285.472 744.288zM152.736 735.104c16.96 4.512 52.272 17.6 88.32 54.08 27.76 28.096 40.8 58.992 46.656 77.856-43.008 13.872-137.152 46.48-196.976 65.84C108.48 874.336 138.4 783.2 152.736 735.104zM906.832 258.16c-1.264 1.312-3.36 3.424-5.856 5.968-9.776-25.28-26.928-57.728-56.624-87.792-30.336-30.704-61.12-48.8-85.792-59.52 2.096-2.096 3.728-3.728 4.368-4.368 3.536-3.504 35.664-34.32 75.696-34.32 23.056 0 45.68 10.544 67.296 31.344 25.632 24.672 38.848 49.024 39.28 72.368C945.616 205.696 932.72 231.36 906.832 258.16z"  />
</svg>